<svg width="22" height="18" viewBox="0 0 22 18" fill="none" xmlns="http://www.w3.org/2000/svg">
    <path fill-rule="evenodd" clip-rule="evenodd"
        d="M0.511393 1.81095C0.511393 1.16662 1.03373 0.644287 1.67806 0.644287H20.3333C20.9777 0.644287 21.5 1.16662 21.5 1.81095V15.0225C21.5 16.3112 20.4553 17.3559 19.1667 17.3559H2.83333C1.54467 17.3559 0.5 16.3112 0.5 15.0225V2.18921C0.5 2.13365 0.503883 2.079 0.511393 2.02552V1.81095ZM2.83333 4.40533V15.0225H19.1667V4.40574L13.4751 10.0973C12.1082 11.4642 9.89216 11.4642 8.52533 10.0973L2.83333 4.40533ZM4.66771 2.93988H17.3327L11.8252 8.44741C11.3695 8.90302 10.6309 8.90302 10.1752 8.44741L4.66771 2.93988Z"
        fill="black" />
</svg>