<svg width="332" height="292" viewBox="0 0 332 292" fill="none" xmlns="http://www.w3.org/2000/svg">
    <mask id="mask0_10563_12232" style="mask-type:luminance" maskUnits="userSpaceOnUse" x="0" y="0" width="332"
        height="292">
        <path d="M331.529 0.463623H0.0289307V291.464H331.529V0.463623Z" fill="white" />
    </mask>
    <g mask="url(#mask0_10563_12232)">
        <path fill-rule="evenodd" clip-rule="evenodd"
            d="M112.889 236.958C116.455 229.348 118.974 221.291 120.759 213.071C120.007 222.556 119.299 232.262 118.59 241.971C118.059 249.253 117.528 256.536 116.977 263.73C116.776 266.376 116.571 269.007 116.363 271.621C116.286 272.598 116.224 273.639 116.703 274.491C117.273 275.501 118.382 275.922 119.57 276.101C120.124 276.182 120.682 276.227 121.241 276.236C124.074 276.312 126.906 276.386 129.736 276.459C131.517 276.507 133.416 276.521 134.911 275.559C135.116 275.426 135.31 275.278 135.493 275.117C137.541 273.281 137.647 269.928 137.522 267.072C137.416 264.602 137.325 262.135 137.248 259.67C136.506 236.896 136.831 214.225 138.327 191.446V191.424C127.094 191.499 115.859 191.574 104.621 191.647C104.961 215.184 94.3193 238.644 76.3965 253.897C75.5044 254.654 74.5279 255.521 74.4255 256.684C74.391 257.225 74.5159 257.763 74.784 258.234C75.0833 258.759 75.4444 259.247 75.8592 259.686C77.2909 261.279 78.8434 262.76 80.5032 264.114C82.083 265.402 83.8785 266.619 85.9155 266.744C85.9594 266.747 86.0033 266.747 86.0472 266.747C88.4753 266.835 90.6807 265.362 92.5823 263.815C92.6149 263.784 92.6475 263.757 92.6802 263.731C92.6952 263.718 92.7102 263.706 92.7248 263.694C101.41 256.533 108.113 247.146 112.889 236.958ZM136.401 193.785C136.41 193.475 136.167 193.215 135.856 193.205C135.546 193.195 135.286 193.439 135.276 193.749L134.081 231.307L132.886 268.865C132.876 269.175 133.12 269.435 133.43 269.445C133.741 269.455 134 269.211 134.01 268.901L135.206 231.343L136.401 193.785Z"
            fill="#171717" />
        <path fill-rule="evenodd" clip-rule="evenodd"
            d="M122.237 176.152C122.339 175.542 122.306 174.917 122.142 174.32L122.232 174.294C122.566 173.283 123.035 172.321 123.625 171.434C123.69 171.302 123.783 171.186 123.897 171.094C124.011 171.002 124.145 170.936 124.287 170.9C124.454 170.902 124.614 170.962 124.741 171.069C124.868 171.177 124.953 171.325 124.982 171.489C125.033 171.818 125.003 172.155 124.894 172.469C124.758 173.011 124.595 173.492 124.433 173.973C124.27 174.452 124.108 174.931 123.972 175.469V175.477C126.049 174.926 128.137 174.431 130.237 173.992C130.655 173.873 131.095 173.847 131.524 173.917C131.737 173.956 131.933 174.062 132.082 174.219C132.232 174.376 132.329 174.576 132.358 174.791C132.383 175.358 131.805 175.742 131.294 175.983C131.177 176.038 131.06 176.093 130.939 176.144L130.943 176.147C131.12 176.116 131.268 176.071 131.405 176.029C131.708 175.937 131.952 175.863 132.33 175.99C132.879 176.174 133.343 176.74 133.204 177.299C133.155 177.46 133.071 177.608 132.959 177.733C132.848 177.859 132.71 177.959 132.557 178.027L132.59 178.086C134.447 178.723 133.567 179.509 133.133 179.896C133.107 179.919 133.083 179.941 133.061 179.961C132.643 180.295 132.152 180.526 131.628 180.636C128.396 181.552 125.042 181.961 121.685 181.85C121.87 179.949 122.054 178.05 122.237 176.152ZM107.375 172.781V172.792C106.965 172.744 106.556 172.696 106.151 172.642C104.726 172.455 103.279 172.21 102.014 171.541C100.749 170.872 99.666 169.702 99.4504 168.286C99.1541 166.348 100.5 164.531 102.032 163.306C104.497 161.345 107.867 160.53 111.017 160.57C109.803 164.64 108.589 168.71 107.375 172.781ZM185.063 135.275C184.485 134.047 183.832 132.745 182.894 131.797C182.415 131.296 181.829 130.91 181.179 130.668C179.134 129.933 176.925 130.967 174.958 131.893C167.047 135.625 158.559 137.987 149.857 138.878C144.873 139.384 139.86 139.406 134.849 139.429C134.114 139.432 133.379 139.435 132.644 139.44C131.052 139.445 129.463 139.466 127.876 139.502C123.831 139.561 119.795 139.889 115.793 140.486C112.538 140.982 109.342 141.807 106.253 142.947C99.3919 145.537 93.0945 150.236 89.8436 156.811C86.5928 163.386 86.9145 171.925 91.6721 177.505C94.8878 181.276 99.5753 183.291 104.413 184.636L104.409 184.644C104.006 185.792 103.693 186.974 103.38 188.158C103.068 189.336 102.756 190.515 102.354 191.661C102.751 191.659 103.148 191.656 103.546 191.654C103.907 191.651 104.268 191.648 104.629 191.647C115.862 191.571 127.097 191.497 138.335 191.424C139.083 191.418 139.832 191.413 140.58 191.408C141.261 191.404 141.943 191.4 142.624 191.395C142.73 185.481 142.836 179.704 142.942 173.929C143.052 167.941 143.162 161.956 143.271 155.824L143.264 155.739C156.754 154.532 169.904 150.838 182.05 144.845C183.677 144.041 185.407 143.064 186.087 141.382C186.371 140.647 186.461 139.851 186.347 139.071C186.193 137.78 185.625 136.475 185.063 135.275ZM177.992 134.922C178.27 134.785 178.385 134.448 178.248 134.169C178.11 133.891 177.773 133.776 177.494 133.913C165.713 139.719 152.669 142.492 139.544 141.982C139.234 141.97 138.972 142.211 138.96 142.522C138.948 142.832 139.19 143.093 139.5 143.106C152.812 143.624 166.042 140.811 177.992 134.922Z"
            fill="url(#paint0_linear_10563_12232)" />
        <path fill-rule="evenodd" clip-rule="evenodd"
            d="M52.179 236.254L52.4239 196.815C47.1653 168.44 36.7358 140.647 22.4038 115.362C18.3118 108.137 13.9199 101.145 9.22819 94.3875L8.93531 94.5337C0.542815 131.33 5.52357 171.457 24.7849 203.917C24.975 204.239 25.1689 204.561 25.3628 204.879C30.6248 213.582 36.8426 221.669 43.8998 228.992C46.323 231.509 48.84 233.929 51.4511 236.251L52.179 236.254ZM17.3772 112.217C17.2206 111.949 16.8762 111.858 16.6079 112.015C16.3395 112.171 16.2488 112.516 16.4053 112.784C24.1508 126.066 30.6439 140.04 35.8005 154.525C35.9048 154.818 36.2265 154.971 36.519 154.867C36.8119 154.762 36.9645 154.441 36.8603 154.148C31.6804 139.597 25.1576 125.56 17.3772 112.217Z"
            fill="url(#paint1_linear_10563_12232)" />
        <path fill-rule="evenodd" clip-rule="evenodd"
            d="M273.004 54.5506C274.785 53.8524 276.31 52.064 275.513 49.9614C275.287 49.4026 274.931 48.9065 274.474 48.5139C274.017 48.1216 273.473 47.8441 272.887 47.705C270.59 47.1121 268.349 48.3193 266.725 49.9246C268.637 46.9955 267.116 42.4576 263.825 41.2689C260.534 40.0801 256.467 42.6035 256.065 46.0775C256.215 43.0423 253.201 40.2598 250.188 40.6509C247.175 41.042 244.97 44.5014 245.888 47.3979C245.006 46.4506 243.85 45.8026 242.582 45.5443C241.315 45.2855 239.998 45.4295 238.815 45.956C237.633 46.4825 236.645 47.3649 235.989 48.4805C235.333 49.5958 235.041 50.888 235.155 52.1773C235.159 52.232 235.15 52.2875 235.129 52.3389C235.109 52.3899 235.077 52.436 235.036 52.4731C234.995 52.5106 234.947 52.538 234.894 52.5541C234.841 52.5699 234.785 52.5736 234.731 52.565C232.957 52.3235 227.519 54.4921 230.441 56.9461C231.978 58.2343 234.821 57.2053 237.135 56.3679C238.053 56.0356 238.888 55.7338 239.525 55.6186C245.796 54.4786 252.739 54.716 259.488 54.9466C262.636 55.0543 265.742 55.1604 268.718 55.1248C270.166 55.1064 271.654 55.0809 273.004 54.5506ZM261.487 43.6351C261.181 43.5804 260.889 43.784 260.834 44.09C260.78 44.396 260.984 44.6881 261.289 44.7425C262.239 44.912 263.072 45.5653 263.586 46.4458C264.1 47.3263 264.259 48.3736 263.939 49.2845C263.836 49.5778 263.991 49.8988 264.284 50.0015C264.577 50.1043 264.898 49.9501 265.001 49.6569C265.448 48.3811 265.207 46.991 264.558 45.8788C263.909 44.7669 262.818 43.8725 261.487 43.6351Z"
            fill="url(#paint2_linear_10563_12232)" />
        <path fill-rule="evenodd" clip-rule="evenodd"
            d="M275.438 198.157L275.335 221.13L275.556 221.128C287.214 214.319 294.729 204.357 300.671 192.234C306.614 180.112 309.642 166.727 311.05 153.299C311.665 147.435 311.98 141.546 312.295 135.656C312.593 130.09 312.89 124.524 313.441 118.979C314.575 107.567 316.839 96.0809 322.123 85.9038C310.103 93.3382 303.208 106.967 299.739 120.666C297.756 128.496 296.7 136.509 295.643 144.526C294.851 150.535 294.059 156.546 292.876 162.484C290.115 176.343 286.382 188.97 275.645 198.157H275.438ZM309.793 134.358C309.785 134.047 309.527 133.802 309.216 133.81C308.906 133.818 308.66 134.076 308.668 134.386C308.855 141.627 308.207 148.864 306.738 155.955C306.675 156.26 306.87 156.557 307.174 156.621C307.479 156.684 307.776 156.488 307.84 156.184C309.326 149.008 309.982 141.684 309.793 134.358Z"
            fill="url(#paint3_linear_10563_12232)" />
        <path
            d="M323.817 61.3255C323.934 62.0714 323.437 62.7809 322.87 63.2856C320.551 65.3444 317.11 65.3369 314.013 65.2165L300.884 64.7005L300.778 64.6529C301.162 63.7904 301.557 62.9278 301.959 62.071C302.04 61.9026 302.116 61.7335 302.197 61.5662L302.406 61.6649C305.66 60.4581 308.092 59.6316 311.515 59.0504C314.937 58.4691 318.522 58.48 321.809 59.5877C322.695 59.8851 323.671 60.4045 323.817 61.3255Z"
            fill="#171717" />
        <path
            d="M319.13 34.6217L319.086 34.5812C319.089 34.5632 319.097 34.5486 319.101 34.5302C321.392 32.5817 324.166 31.2865 327.131 30.7802C327.858 30.6156 328.613 30.6231 329.336 30.8024C329.696 30.8961 330.023 31.0874 330.281 31.3551C330.539 31.6229 330.719 31.957 330.799 32.32C330.824 32.6571 330.769 32.9957 330.639 33.3077C330.509 33.6197 330.306 33.8965 330.049 34.1155C328.926 35.176 327.258 35.353 325.719 35.4685C323.144 35.6684 320.568 35.8671 317.994 36.0647L317.982 36.0572C318.099 35.9072 318.216 35.761 318.334 35.611C318.6 35.2799 318.863 34.9506 319.13 34.6217Z"
            fill="#171717" />
        <path
            d="M319.105 34.5306C319.102 34.549 319.094 34.5636 319.091 34.5816L319.135 34.6221C318.868 34.951 318.604 35.2803 318.341 35.6129C316.399 32.2086 314.446 28.771 313.204 25.0555C312.953 24.4266 312.831 23.7539 312.846 23.077C312.855 22.7395 312.952 22.4103 313.128 22.1215C313.304 21.8331 313.552 21.5954 313.848 21.4315C314.124 21.3183 314.424 21.2718 314.722 21.2965C315.02 21.3213 315.308 21.4165 315.562 21.574C316.07 21.8913 316.508 22.3079 316.85 22.7991C318.089 24.4566 318.936 26.3733 319.327 28.4058C319.718 30.4379 319.642 32.5323 319.105 34.5306Z"
            fill="#171717" />
        <path
            d="M309.891 47.1483L310.079 47.2653C309.651 47.938 309.231 48.6145 308.817 49.2948L308.568 49.1448C306.312 44.8552 304.1 40.4962 302.756 35.8372C302.472 35.0178 302.351 34.1504 302.401 33.2849C302.432 32.8525 302.574 32.4352 302.814 32.074C303.054 31.7125 303.382 31.4193 303.769 31.2224C304.13 31.0889 304.519 31.0432 304.902 31.0897C305.284 31.1362 305.651 31.273 305.97 31.489C306.606 31.9267 307.134 32.5015 307.517 33.1713C310.089 37.2344 310.279 42.3539 309.891 47.1483Z"
            fill="#171717" />
        <path
            d="M308.674 49.5383C308.722 49.458 308.773 49.374 308.82 49.2934C309.234 48.6132 309.654 47.9367 310.082 47.2639C310.1 47.229 310.121 47.196 310.144 47.1649L310.221 47.2125C314.111 45.0934 318.554 44.2107 322.958 44.682C323.683 44.7135 324.391 44.9112 325.028 45.2599C325.342 45.4395 325.597 45.7084 325.76 46.0324C325.923 46.3564 325.986 46.7209 325.942 47.0809C325.745 48.0559 324.63 48.5059 323.66 48.7377C318.815 49.8897 313.768 49.7502 308.791 49.608L308.674 49.5383Z"
            fill="#171717" />
        <path
            d="M300.784 64.6538C300.718 64.8001 300.652 64.9501 300.59 65.0963L300.268 64.9535C296.531 58.3748 292.698 51.4996 292.208 43.9445C292.15 43.0445 292.194 42.0098 292.878 41.4211C293.193 41.1886 293.569 41.0506 293.96 41.0236C294.351 40.9962 294.742 41.081 295.086 41.2677C295.771 41.6498 296.353 42.1921 296.783 42.8476C298.776 45.5243 299.954 48.7351 300.63 52.0043C301.307 55.2736 301.504 58.616 301.698 61.9475L301.965 62.072C301.565 62.9277 301.168 63.7906 300.784 64.6538Z"
            fill="#171717" />
        <path
            d="M294.46 81.8921C294.526 81.6615 294.592 81.4312 294.661 81.2047C294.826 80.652 294.994 80.1 295.166 79.548C298.976 77.46 302.813 75.3682 306.923 73.971C311.106 72.546 315.63 71.8575 319.967 72.7095C320.556 72.822 321.247 73.068 321.375 73.653C321.488 74.1577 321.113 74.6329 320.738 74.9914C317.381 78.2096 312.506 79.1895 307.891 79.7456C303.276 80.3017 298.628 79.6102 294.598 81.9322L294.46 81.8921Z"
            fill="#171717" />
        <path
            d="M295.057 79.6065C295.094 79.5844 295.126 79.5664 295.163 79.548C294.991 80.1 294.823 80.652 294.658 81.2048L294.523 81.1643C294.421 81.2768 294.318 81.3912 294.216 81.5018C290.442 78.4043 287.071 74.8467 284.181 70.9114C282.173 68.1762 280.352 65.1079 280.148 61.7216C280.082 60.6026 280.309 59.2898 281.292 58.7591C282.459 58.1336 283.856 58.9932 284.828 59.8928C290.325 64.983 293.053 72.3555 295.042 79.578L295.057 79.6065Z"
            fill="#171717" />
        <path
            d="M293.242 267.724C293.421 268.266 293.201 270.003 293.201 270.003L293.077 270.595C293.028 270.595 292.979 270.598 292.931 270.606L284.429 271.787C284.115 271.831 283.795 271.794 283.5 271.681L279.872 270.313C279.697 270.247 279.542 270.136 279.424 269.991C279.306 269.846 279.228 269.673 279.197 269.488C279.167 269.304 279.187 269.114 279.253 268.939C279.319 268.765 279.431 268.61 279.576 268.492L289.724 260.216C289.914 260.062 290.152 259.979 290.397 259.979H291.263V260.754L289.888 263.337C289.888 263.337 292.814 266.412 293.242 267.724Z"
            fill="#171717" />
        <path
            d="M230.051 248.081C230.16 248.125 230.253 248.203 230.313 248.304L236.497 258.566L238.176 261.352C238.217 261.421 238.242 261.498 238.25 261.578C238.257 261.658 238.247 261.738 238.22 261.813L236.175 267.478C236.143 267.566 236.088 267.644 236.016 267.706C235.945 267.766 235.858 267.808 235.766 267.825C233.729 268.2 222.071 270.377 221.441 270.692C221.309 270.758 220.783 270.652 220.026 270.436L220.819 270.016L218.344 265.357L223.164 260.54L226.434 250.385L229.553 248.816L229.875 248.012L230.051 248.081Z"
            fill="url(#paint4_linear_10563_12232)" />
        <path
            d="M211.916 245.054C212.439 241.935 213.203 239.488 214.549 235.679C216.454 230.303 219.563 225.228 224.097 221.765C225.476 232.6 222.437 244.043 215.285 252.215C214.213 253.034 213.201 253.849 213.032 253.981C213.015 253.995 212.997 254.008 212.977 254.018L209.306 256.289L204.186 249.184C204.103 249.07 203.99 248.982 203.86 248.928L201.889 248.109L201.912 248.054C198.219 244.539 195.451 240.166 193.855 235.324C199.267 237.671 203.771 241.712 206.69 246.838C203.962 240.069 204.646 233.691 207.038 226.209C210.437 231.893 212.131 238.435 211.916 245.054Z"
            fill="url(#paint5_linear_10563_12232)" />
        <path
            d="M203.987 267.468C203.851 267.486 203.714 267.452 203.602 267.372C203.491 267.293 203.414 267.174 203.387 267.04V267.036C203.364 266.924 203.379 266.807 203.427 266.703L207.925 257.243C207.97 257.149 208.041 257.07 208.13 257.016L209.304 256.288L212.976 254.017C212.995 254.007 213.014 253.994 213.03 253.98C213.199 253.848 214.212 253.033 215.283 252.214C216.475 251.303 217.737 250.385 217.996 250.385H222.816C222.928 250.386 223.036 250.351 223.127 250.286L227.395 247.284C227.469 247.233 227.554 247.201 227.643 247.19C227.733 247.18 227.823 247.192 227.907 247.226L229.87 248.013L229.549 248.818L226.429 250.387L223.16 260.542L218.34 265.358L220.815 270.017L220.021 270.438C217.089 269.608 210.663 267.161 209.687 266.785C209.605 266.753 209.515 266.743 209.427 266.755L203.987 267.468Z"
            fill="#171717" />
        <path
            d="M200.013 247.492L201.304 250.557L197.519 259.68L196.144 265.53L193.226 268.273C193.179 268.268 193.132 268.259 193.087 268.244L183.791 265.501C183.673 265.466 183.565 265.401 183.477 265.315C183.389 265.228 183.323 265.121 183.286 265.004C183.248 264.886 183.24 264.761 183.262 264.639C183.283 264.517 183.335 264.403 183.411 264.305L187.108 259.614C187.164 259.542 187.234 259.481 187.312 259.434L191.957 256.626L194.455 255.116C194.547 255.06 194.625 254.985 194.685 254.896L199.582 247.794C199.683 247.644 199.837 247.536 200.013 247.492Z"
            fill="#171717" />
        <path
            d="M116.683 111.055L116.617 111.033C115.289 111.673 114.423 112.288 113.095 112.928C113.183 111.998 113.582 111.126 114.227 110.451C114.872 109.776 115.725 109.338 116.65 109.208C116.2 108.947 115.701 108.783 115.184 108.727C114.668 108.671 114.145 108.724 113.65 108.883C113.956 108.075 114.553 107.411 115.324 107.023C116.095 106.633 116.984 106.547 117.815 106.78C118.561 107.021 119.203 107.515 119.936 107.775C120.767 108.011 121.634 108.1 122.496 108.035C125.015 107.987 127.535 107.941 130.055 107.896L130.245 107.991C130.959 106.506 131.993 105.199 133.273 104.162C133.705 103.811 134.345 103.493 134.78 103.844C135.16 104.147 135.083 104.74 134.952 105.208C134.604 106.442 134.117 107.634 133.5 108.758C134.619 107.885 138.258 106.228 138.316 106.696C137.587 108.359 136.428 109.799 134.959 110.865L135.054 110.993C137.033 110.128 139.204 109.796 141.351 110.031C140.836 111.421 139.446 112.339 138.005 112.69C136.565 113.041 135.058 112.909 133.58 112.781C133.507 112.774 133.43 112.766 133.357 112.763C130.494 112.507 127.631 112.253 124.77 112.002C123.417 111.885 121.946 111.79 120.806 112.532C119.081 113.651 118.919 116.076 118.944 118.135L119.01 124.07H118.94C118.849 124.586 117.225 126.883 116.783 126.601C116.311 126.305 116.761 123.986 116.629 123.445C116.271 124.311 115.739 125.095 115.068 125.749C114.869 120.914 115.044 115.615 116.683 111.055Z"
            fill="#171717" />
        <path
            d="M119.128 134.679C122.116 134.474 125.105 134.269 128.095 134.065C128.183 134.058 128.274 134.054 128.362 134.046C129.7 133.955 131.203 133.915 132.205 134.811C132.531 135.134 132.789 135.52 132.963 135.945C133.136 136.371 133.222 136.827 133.215 137.286C133.236 138.2 132.863 138.5 132.64 139.386V139.441C131.049 139.448 129.46 139.469 127.872 139.503C123.827 139.561 119.79 139.89 115.789 140.487L115.775 140.399C115.439 139.497 115.223 138.556 115.134 137.598C115.101 137.184 115.163 136.769 115.316 136.383C115.469 135.998 115.708 135.652 116.016 135.374C116.649 134.866 117.512 134.789 118.323 134.734L119.128 134.679Z"
            fill="url(#paint6_linear_10563_12232)" />
        <path
            d="M43.9021 228.992L43.6021 229.284C38.5921 230.07 33.4745 229.823 28.5631 228.559C23.6521 227.294 19.0516 225.039 15.0442 221.931C11.0368 218.823 7.70723 214.928 5.26025 210.486C2.81322 206.045 1.30036 201.149 0.814697 196.101L1.44357 196.058C8.18566 201.346 16.3454 204.515 24.8896 205.163L25.3651 204.878C30.6275 213.581 36.845 221.669 43.9021 228.992Z"
            fill="#171717" />
        <path
            d="M37.431 274.791L37.5259 275.585L37.4884 275.589C37.4482 275.594 37.4077 275.597 37.3676 275.596L25.7179 275.15C25.5217 275.142 25.3361 275.061 25.1981 274.921C25.0601 274.782 24.9802 274.595 24.9754 274.4C24.9709 274.291 24.9904 274.182 25.032 274.082C25.0736 273.981 25.1366 273.891 25.2169 273.818L27.678 271.499L32.5905 266.873C32.7161 266.756 32.8766 266.682 33.0476 266.665L36.6476 266.327C36.8209 266.311 36.9949 266.354 37.1415 266.448L36.7537 267.044L35.8834 270.047L37.434 272.112L37.431 274.791Z"
            fill="#171717" />
        <path
            d="M125.511 124.308C125.991 124.754 126.839 124.414 127.131 123.825C127.424 123.237 127.329 122.546 127.227 121.898C127.025 120.636 126.824 119.379 126.623 118.117C126.462 117.097 126.342 115.926 127.025 115.154C127.299 114.884 127.634 114.683 128.002 114.57C128.37 114.458 128.76 114.436 129.139 114.507C129.894 114.655 130.619 114.927 131.286 115.312"
            stroke="#171717" stroke-width="0.791667" stroke-linecap="round" stroke-linejoin="round" />
        <path d="M128.856 118.22C128.798 117.763 128.739 117.302 128.681 116.845" stroke="#171717"
            stroke-width="0.791667" stroke-linecap="round" stroke-linejoin="round" />
        <path
            d="M125.391 127.474C125.158 127.605 124.9 127.688 124.634 127.719C124.368 127.749 124.098 127.725 123.841 127.65C123.584 127.575 123.345 127.449 123.137 127.28C122.929 127.111 122.757 126.903 122.63 126.666"
            stroke="#171717" stroke-width="0.791667" stroke-linecap="round" stroke-linejoin="round" />
        <path
            d="M119.128 134.741V134.678L119.008 124.07L118.942 118.135C118.916 116.076 119.077 113.651 120.803 112.532C121.944 111.79 123.415 111.885 124.768 112.002C127.631 112.255 130.493 112.508 133.355 112.763C133.428 112.766 133.505 112.774 133.578 112.781C135.056 112.909 136.562 113.037 138.003 112.69C139.444 112.343 140.834 111.421 141.349 110.031C139.202 109.796 137.031 110.127 135.052 110.993"
            stroke="#171717" stroke-width="1.1875" stroke-linecap="round" stroke-linejoin="round" />
        <path d="M133.488 108.762C133.426 108.813 133.372 108.861 133.325 108.904" stroke="#171717"
            stroke-width="1.1875" stroke-linecap="round" stroke-linejoin="round" />
        <path
            d="M134.926 110.887C134.937 110.88 134.944 110.873 134.955 110.866C136.425 109.799 137.584 108.36 138.313 106.697C138.254 106.228 134.615 107.885 133.496 108.759"
            stroke="#171717" stroke-width="1.1875" stroke-linecap="round" stroke-linejoin="round" />
        <path
            d="M133.308 109.091C133.371 108.982 133.433 108.872 133.491 108.762L133.495 108.759C134.112 107.634 134.6 106.443 134.947 105.208C135.078 104.74 135.155 104.147 134.775 103.844C134.34 103.493 133.7 103.811 133.268 104.162C131.988 105.199 130.954 106.506 130.24 107.991C130.127 108.229 130.021 108.47 129.922 108.715"
            stroke="#171717" stroke-width="1.1875" stroke-linecap="round" stroke-linejoin="round" />
        <path
            d="M130.054 107.896C127.534 107.944 125.015 107.991 122.495 108.036C121.633 108.1 120.767 108.012 119.935 107.776C119.2 107.516 118.56 107.022 117.814 106.781C116.983 106.548 116.094 106.635 115.324 107.024C114.553 107.413 113.956 108.076 113.65 108.884C114.145 108.725 114.668 108.672 115.185 108.728C115.701 108.784 116.201 108.948 116.65 109.209C115.725 109.339 114.872 109.777 114.227 110.452C113.582 111.127 113.183 111.999 113.095 112.929C114.423 112.288 115.289 111.674 116.617 111.034"
            stroke="#171717" stroke-width="1.1875" stroke-linecap="round" stroke-linejoin="round" />
        <path
            d="M116.791 110.75C116.754 110.852 116.716 110.955 116.682 111.057C115.043 115.617 114.868 120.916 115.069 125.751C115.741 125.097 116.272 124.312 116.631 123.447C116.762 123.988 116.313 126.306 116.784 126.603C117.227 126.884 118.851 124.587 118.942 124.072"
            stroke="#171717" stroke-width="1.1875" stroke-linecap="round" stroke-linejoin="round" />
        <path
            d="M133.365 112.724C133.362 112.738 133.358 112.749 133.354 112.764C132.634 115.448 133.138 118.282 133.274 121.058C133.413 123.844 133.049 126.923 131.039 128.858C130.246 129.618 129.244 130.148 128.516 130.975C127.788 131.801 127.411 133.118 128.088 133.985"
            stroke="#171717" stroke-width="1.1875" stroke-linecap="round" stroke-linejoin="round" />
        <path
            d="M132.64 139.386C132.863 138.501 133.236 138.201 133.215 137.286C133.222 136.827 133.136 136.371 132.963 135.945C132.789 135.52 132.531 135.134 132.205 134.811C131.203 133.915 129.7 133.955 128.362 134.046C128.274 134.054 128.183 134.058 128.095 134.065C125.107 134.266 122.118 134.471 119.128 134.679L118.323 134.734C117.512 134.789 116.649 134.866 116.016 135.374C115.708 135.652 115.469 135.997 115.316 136.383C115.163 136.768 115.101 137.184 115.134 137.597C115.223 138.555 115.439 139.497 115.775 140.398"
            stroke="#171717" stroke-width="1.1875" stroke-linecap="round" stroke-linejoin="round" />
        <path
            d="M121.447 184.304C120.105 186.275 110.347 186.052 108.019 185.532C106.819 185.266 105.612 184.97 104.413 184.636C99.5753 183.291 94.8878 181.276 91.6721 177.505C86.9145 171.925 86.5928 163.386 89.8436 156.811C93.0945 150.236 99.3919 145.537 106.253 142.947C109.342 141.807 112.538 140.982 115.793 140.486C119.795 139.889 123.831 139.561 127.876 139.502C129.463 139.466 131.052 139.445 132.645 139.44C138.39 139.403 144.142 139.459 149.857 138.878C158.559 137.987 167.047 135.625 174.959 131.893C176.926 130.967 179.135 129.933 181.179 130.668C181.829 130.91 182.415 131.297 182.894 131.798C183.831 132.745 184.485 134.048 185.063 135.275C185.625 136.475 186.193 137.78 186.346 139.071C186.46 139.851 186.371 140.647 186.087 141.383C185.406 143.065 183.677 144.041 182.049 144.846C169.904 150.839 156.754 154.532 143.264 155.74C141.626 155.89 139.983 156.001 138.338 156.073"
            stroke="#171717" stroke-width="1.1875" stroke-linecap="round" stroke-linejoin="round" />
        <path d="M143.267 155.825C143.051 167.871 142.836 179.35 142.62 191.396" stroke="#171717" stroke-width="1.1875"
            stroke-linecap="round" stroke-linejoin="round" />
        <path
            d="M142.623 191.395C141.193 191.406 139.763 191.413 138.333 191.424C127.096 191.498 115.861 191.572 104.628 191.647C103.87 191.651 103.11 191.658 102.353 191.661"
            stroke="#171717" stroke-width="1.1875" stroke-linecap="round" stroke-linejoin="round" />
        <path d="M102.353 191.662C103.157 189.366 103.603 186.937 104.408 184.645" stroke="#171717"
            stroke-width="1.1875" stroke-linecap="round" stroke-linejoin="round" />
        <path d="M107.374 172.781C108.588 168.711 109.802 164.641 111.017 160.571" stroke="#171717"
            stroke-width="1.1875" stroke-linecap="round" stroke-linejoin="round" />
        <path
            d="M111.011 160.57C107.861 160.53 104.491 161.346 102.026 163.306C100.494 164.531 99.148 166.348 99.4443 168.287C99.6599 169.702 100.743 170.872 102.008 171.541C103.273 172.211 104.72 172.455 106.145 172.642C106.551 172.697 106.961 172.744 107.37 172.792C111.215 173.227 115.091 173.322 118.952 173.073C119.991 173.007 121.208 172.99 121.855 173.805C121.978 173.959 122.073 174.134 122.137 174.32C122.301 174.917 122.334 175.542 122.232 176.153C122.049 178.05 121.865 179.95 121.68 181.85C121.6 182.669 121.523 183.485 121.442 184.304"
            stroke="#171717" stroke-width="1.1875" stroke-linecap="round" stroke-linejoin="round" />
        <path
            d="M182.895 131.816V131.798C182.774 129.944 182.957 128.084 183.436 126.29C183.601 125.672 184.014 124.926 184.639 125.043C185.181 125.145 185.367 125.808 185.448 126.349C185.634 127.596 185.819 128.84 186.003 130.082C188.251 128.237 190.688 126.637 193.273 125.307C193.7 125.045 194.182 124.886 194.681 124.842C194.931 124.827 195.18 124.892 195.391 125.027C195.602 125.162 195.765 125.361 195.855 125.595C196.027 126.217 195.493 126.777 194.974 127.186C194.941 127.208 194.912 127.234 194.883 127.256C193.05 128.649 191.219 130.041 189.39 131.432"
            stroke="#171717" stroke-width="1.1875" stroke-linecap="round" stroke-linejoin="round" />
        <path
            d="M194.604 127.604C194.739 127.487 194.882 127.366 195.024 127.253C195.484 126.827 196.061 126.548 196.681 126.452C197.482 126.379 198.389 127.055 198.224 127.845C198.079 128.272 197.787 128.635 197.401 128.869C197.39 128.876 197.379 128.888 197.368 128.895C195.448 130.354 193.527 131.814 191.605 133.276L192.011 132.848"
            stroke="#171717" stroke-width="1.1875" stroke-linecap="round" stroke-linejoin="round" />
        <path
            d="M197.21 128.941C197.271 128.908 197.336 128.884 197.403 128.868C197.715 128.81 198.037 128.866 198.311 129.025C198.586 129.184 198.794 129.436 198.899 129.735C198.991 130.076 198.996 130.436 198.912 130.78C198.828 131.124 198.659 131.441 198.42 131.702C197.935 132.217 197.366 132.646 196.738 132.971C193.289 135.004 189.838 137.036 186.385 139.067C186.542 139.009 186.699 138.947 186.857 138.888"
            stroke="#171717" stroke-width="1.1875" stroke-linecap="round" stroke-linejoin="round" />
        <path
            d="M122.232 174.299C122.566 173.287 123.035 172.325 123.625 171.439C123.69 171.307 123.783 171.191 123.897 171.098C124.012 171.006 124.145 170.94 124.288 170.905C124.454 170.906 124.614 170.966 124.741 171.074C124.868 171.181 124.953 171.33 124.982 171.494C125.033 171.822 125.003 172.159 124.894 172.474C124.624 173.552 124.244 174.393 123.973 175.474"
            stroke="#171717" stroke-width="1.1875" stroke-linecap="round" stroke-linejoin="round" />
        <path
            d="M123.851 175.51C123.891 175.498 123.928 175.488 123.968 175.48C126.042 174.928 128.13 174.433 130.233 173.995C130.651 173.876 131.09 173.85 131.52 173.92C131.733 173.96 131.928 174.066 132.078 174.222C132.228 174.379 132.324 174.579 132.354 174.794C132.379 175.361 131.801 175.745 131.289 175.986C131.172 176.041 131.055 176.096 130.935 176.147C129.14 176.964 127.235 177.514 125.281 177.782"
            stroke="#171717" stroke-width="1.1875" stroke-linecap="round" stroke-linejoin="round" />
        <path
            d="M130.939 176.149C131.51 176.047 131.777 175.812 132.327 175.992C132.877 176.172 133.339 176.742 133.201 177.302C133.151 177.462 133.067 177.61 132.956 177.735C132.844 177.861 132.707 177.961 132.553 178.029C132.325 178.146 132.087 178.24 131.841 178.311C129.902 178.888 127.943 179.385 125.964 179.802"
            stroke="#171717" stroke-width="1.1875" stroke-linecap="round" stroke-linejoin="round" />
        <path
            d="M132.588 178.089C134.556 178.764 133.451 179.606 133.06 179.964C132.642 180.298 132.151 180.529 131.627 180.639C128.395 181.554 125.041 181.964 121.683 181.852H121.629"
            stroke="#171717" stroke-width="1.1875" stroke-linecap="round" stroke-linejoin="round" />
        <path
            d="M104.621 191.546V191.648C104.961 215.184 94.3193 238.643 76.3965 253.898C75.5044 254.655 74.5279 255.522 74.4255 256.685C74.391 257.225 74.5159 257.764 74.784 258.235C75.0833 258.76 75.4444 259.247 75.8592 259.687C77.2909 261.281 78.8434 262.761 80.5032 264.116C82.083 265.403 83.8782 266.621 85.9155 266.745C85.9594 266.749 86.0033 266.749 86.0472 266.749C88.4753 266.836 90.6807 265.361 92.5823 263.816C92.6295 263.772 92.6772 263.735 92.7248 263.695C101.41 256.535 108.113 247.147 112.889 236.959C116.455 229.349 118.974 221.293 120.759 213.072C121.366 210.281 121.884 207.476 122.334 204.661"
            stroke="#171717" stroke-width="1.1875" stroke-linecap="round" stroke-linejoin="round" />
        <path
            d="M120.77 213.044C120.771 213.053 120.77 213.062 120.767 213.07C119.45 229.669 118.269 246.944 116.985 263.73C116.785 266.374 116.58 269.004 116.371 271.621C116.296 272.596 116.232 273.64 116.711 274.492C117.282 275.501 118.39 275.922 119.578 276.101C120.132 276.182 120.69 276.227 121.25 276.236C124.08 276.31 126.912 276.384 129.744 276.46C131.525 276.507 133.424 276.522 134.919 275.56C135.123 275.426 135.318 275.278 135.501 275.117C137.549 273.28 137.655 269.928 137.531 267.072C137.424 264.603 137.333 262.136 137.256 259.67C136.514 236.895 136.839 214.225 138.335 191.446"
            stroke="#171717" stroke-width="1.1875" stroke-linecap="round" stroke-linejoin="round" />
        <path
            d="M74.6915 258.284C73.2665 258.518 72.1647 259.663 71.6015 261.022C71.4567 261.366 71.3465 261.724 71.2722 262.089C70.9212 263.87 71.3052 265.702 71.6847 267.48C72.2007 269.893 72.7175 272.306 73.2354 274.717C73.484 275.876 73.751 277.076 74.4822 278.008C75.5427 279.361 77.3349 279.862 79.0021 280.283C81.0174 280.795 83.0337 281.305 85.0509 281.812C85.8481 282.013 86.7732 282.192 87.428 281.691C88.2031 281.095 88.1262 279.921 87.9729 278.955C87.3331 274.889 86.6919 270.824 86.0491 266.76"
            stroke="#171717" stroke-width="1.1875" stroke-linecap="round" stroke-linejoin="round" />
        <path
            d="M119.562 276.201C118.688 279.002 117.946 282.078 119.69 284.436C120.758 285.881 122.54 286.583 124.221 287.211C127.673 288.502 131.158 289.804 134.808 290.331C138.457 290.858 142.33 290.561 145.563 288.793C147.545 287.711 149.388 285.422 148.434 283.377C147.969 282.379 146.96 281.769 146.009 281.216L135.499 275.116"
            stroke="#171717" stroke-width="1.1875" stroke-linecap="round" stroke-linejoin="round" />
        <path
            d="M137.2 259.682C137.219 259.678 137.233 259.674 137.252 259.671C148.731 256.928 149.338 256.628 161.208 250.042"
            stroke="#171717" stroke-width="1.1875" stroke-linecap="round" stroke-linejoin="round" />
        <path d="M92.6737 263.915C104.614 265.077 104.679 264.818 116.875 263.721" stroke="#171717"
            stroke-width="1.1875" stroke-linecap="round" stroke-linejoin="round" />
        <path
            d="M236.005 258.562C236.17 258.562 236.335 258.566 236.496 258.566C267.466 258.782 268.592 255.465 268.592 255.465L268.607 250.107L269.101 74.768L269.108 71.9266C205.093 54.3733 161.726 87.6736 161.726 87.6736C161.726 87.6736 127.65 64.6996 58.9878 75.0241L58.9657 77.3608L57.2032 254.693L57.1814 257.012C57.1814 257.012 56.9875 258.174 71.4434 260.949"
            stroke="#171717" stroke-width="1.1875" stroke-linecap="round" stroke-linejoin="round" />
        <path d="M161.593 152.684L161.209 250.042C177.472 255.18 176.265 254.946 191.928 256.581" stroke="#171717"
            stroke-width="1.1875" stroke-linecap="round" stroke-linejoin="round" />
        <path d="M161.724 87.6736L161.852 136.593" stroke="#171717" stroke-width="1.1875" stroke-linecap="round"
            stroke-linejoin="round" />
        <path
            d="M58.9883 77.3496L58.9662 77.3605L55.3714 78.8965L55.3422 83.113L54.1208 249.01L54.0807 254.429L56.9221 254.689"
            stroke="#171717" stroke-width="1.1875" stroke-linecap="round" stroke-linejoin="round" />
        <path
            d="M55.2026 83.1135L53.1401 83.2853L52.9132 119.584L52.4306 196.815L52.1857 236.255L52.1602 240.394L52.1272 245.438L52.116 247.241L52.1051 249.011H53.9996"
            stroke="#171717" stroke-width="1.1875" stroke-linecap="round" stroke-linejoin="round" />
        <path
            d="M269.104 74.7676L271.43 74.5081L271.441 77.7372L271.938 247.203L271.945 249.785L271.693 249.81L268.654 250.107"
            stroke="#171717" stroke-width="1.1875" stroke-linecap="round" stroke-linejoin="round" />
        <path
            d="M271.494 77.7377L275.992 77.2622L275.44 198.157L275.338 221.13L275.246 241.093L275.217 247.288L271.948 247.204"
            stroke="#171717" stroke-width="1.1875" stroke-linecap="round" stroke-linejoin="round" />
        <path
            d="M203.388 267.039L201.124 267.665C201.017 267.732 200.895 267.772 200.769 267.782L193.35 268.275C193.261 268.284 193.172 268.274 193.087 268.246L183.791 265.503C183.673 265.468 183.565 265.404 183.477 265.317C183.389 265.23 183.323 265.123 183.286 265.006C183.248 264.888 183.24 264.763 183.262 264.641C183.284 264.519 183.335 264.405 183.411 264.307L187.108 259.616C187.165 259.544 187.234 259.483 187.313 259.437L191.957 256.628L194.455 255.118C194.547 255.062 194.625 254.988 194.685 254.898L199.582 247.797C199.68 247.654 199.825 247.549 199.991 247.5C200.158 247.45 200.336 247.459 200.496 247.526L201.889 248.107L203.86 248.926C203.99 248.981 204.103 249.069 204.186 249.183L209.305 256.288L209.392 256.408"
            stroke="#171717" stroke-width="1.1875" stroke-linecap="round" stroke-linejoin="round" />
        <path d="M204.016 266.864L203.39 267.036" stroke="#171717" stroke-width="1.1875" stroke-linecap="round"
            stroke-linejoin="round" />
        <path
            d="M203.387 267.036C203.364 266.924 203.379 266.807 203.427 266.703L207.925 257.243C207.97 257.149 208.041 257.07 208.13 257.016L209.304 256.288L212.976 254.017C212.995 254.007 213.014 253.994 213.03 253.98C213.199 253.848 214.212 253.033 215.283 252.214C216.475 251.303 217.737 250.385 217.996 250.385H222.816C222.928 250.386 223.036 250.351 223.127 250.286L227.395 247.284C227.469 247.233 227.554 247.201 227.643 247.19C227.733 247.18 227.823 247.192 227.907 247.226L229.87 248.013L230.046 248.083C230.156 248.127 230.248 248.206 230.308 248.308L236.492 258.569L238.171 261.356C238.212 261.425 238.238 261.502 238.245 261.581C238.253 261.661 238.243 261.742 238.215 261.817L236.17 267.481C236.138 267.569 236.083 267.648 236.012 267.709C235.94 267.77 235.854 267.811 235.761 267.829C233.724 268.204 222.066 270.381 221.436 270.695C221.304 270.761 220.778 270.655 220.021 270.44C217.088 269.609 210.663 267.163 209.686 266.786C209.604 266.755 209.514 266.745 209.427 266.757L203.985 267.47C203.85 267.488 203.712 267.454 203.6 267.375C203.489 267.295 203.412 267.176 203.385 267.042L203.387 267.036Z"
            stroke="#171717" stroke-width="1.1875" stroke-linecap="round" stroke-linejoin="round" />
        <path d="M229.553 248.816L226.434 250.385L223.164 260.54L218.344 265.356L220.82 270.015L220.838 270.048"
            stroke="#171717" stroke-width="1.1875" stroke-linecap="round" stroke-linejoin="round" />
        <path
            d="M199.927 247.288L200.011 247.493L201.303 250.558L197.518 259.681L196.143 265.533L193.224 268.275L193.217 268.283"
            stroke="#171717" stroke-width="1.1875" stroke-linecap="round" stroke-linejoin="round" />
        <path
            d="M213.219 254.369C213.939 253.681 214.627 252.961 215.282 252.215C222.435 244.042 225.473 232.599 224.094 221.765C219.56 225.228 216.451 230.303 214.546 235.679C213.2 239.49 212.436 241.936 211.913 245.054C211.701 246.338 211.525 247.738 211.368 249.398"
            stroke="#171717" stroke-width="1.1875" stroke-linecap="round" stroke-linejoin="round" />
        <path
            d="M211.497 249.431C211.736 247.983 211.877 246.521 211.918 245.054C212.132 238.435 210.439 231.894 207.039 226.21C204.648 233.692 203.964 240.069 206.692 246.838C207.095 247.83 207.551 248.8 208.06 249.742"
            stroke="#171717" stroke-width="1.1875" stroke-linecap="round" stroke-linejoin="round" />
        <path
            d="M208.026 249.523C207.635 248.602 207.189 247.706 206.691 246.839C203.772 241.712 199.267 237.67 193.855 235.323C195.451 240.165 198.219 244.538 201.912 248.053"
            stroke="#171717" stroke-width="1.1875" stroke-linecap="round" stroke-linejoin="round" />
        <path
            d="M293.077 270.597C293.028 270.596 292.979 270.6 292.931 270.608L284.429 271.789C284.115 271.833 283.795 271.796 283.5 271.683L279.872 270.315C279.697 270.249 279.542 270.138 279.424 269.993C279.306 269.848 279.228 269.675 279.197 269.49C279.167 269.305 279.187 269.116 279.253 268.941C279.319 268.766 279.431 268.612 279.576 268.494L289.724 260.218C289.914 260.064 290.152 259.98 290.397 259.98H291.571C291.817 259.98 292.055 260.065 292.246 260.222L298.7 265.547L299.241 265.993C299.284 266.029 299.331 266.061 299.38 266.088L301.995 267.626L303.447 268.478C303.616 268.578 303.754 268.722 303.846 268.895C303.939 269.068 303.982 269.263 303.97 269.459C303.959 269.655 303.894 269.844 303.782 270.005C303.67 270.166 303.516 270.293 303.337 270.372L298.623 272.439C298.393 272.54 298.143 272.591 297.891 272.586C297.639 272.583 297.391 272.525 297.164 272.417L293.529 270.702C293.388 270.634 293.234 270.599 293.077 270.597Z"
            stroke="#171717" stroke-width="1.1875" stroke-linecap="round" stroke-linejoin="round" />
        <path
            d="M291.267 260.756L289.892 263.337C289.892 263.337 292.817 266.412 293.245 267.724C293.424 268.266 293.205 270.003 293.205 270.003"
            stroke="#171717" stroke-width="1.1875" stroke-linecap="round" stroke-linejoin="round" />
        <path
            d="M302.064 267.506C307.485 261.334 311.101 253.786 312.515 245.693C307.062 250.67 304.221 257.812 301.551 264.694C302.054 261.422 301.711 258.076 300.553 254.974C299.015 258.274 298.376 261.921 298.699 265.546C298.707 265.621 298.714 265.704 298.721 265.78"
            stroke="#171717" stroke-width="1.1875" stroke-linecap="round" stroke-linejoin="round" />
        <path
            d="M24.9754 274.4C24.9709 274.291 24.9904 274.182 25.032 274.082C25.0736 273.981 25.1366 273.891 25.2169 273.818L27.678 271.499L32.5905 266.873C32.7161 266.756 32.8766 266.682 33.0476 266.665L36.6476 266.327C36.8209 266.311 36.9949 266.354 37.1415 266.448L39.6574 268.09C39.8047 268.185 39.9795 268.229 40.1546 268.214L42.3124 268.006C42.495 267.99 42.6776 268.04 42.828 268.145L47.7427 271.608C47.8912 271.713 47.9981 271.867 48.0446 272.043C48.0907 272.219 48.0731 272.405 47.9951 272.57L47.2931 274.051C47.2369 274.168 47.1525 274.269 47.0467 274.346C46.9414 274.422 46.8187 274.47 46.6897 274.486L37.5289 275.583L37.4914 275.587C37.4512 275.592 37.4107 275.595 37.3706 275.594L25.7179 275.15C25.5217 275.142 25.3361 275.061 25.1981 274.922C25.0601 274.782 24.9802 274.595 24.9754 274.4Z"
            stroke="#171717" stroke-width="1.1875" stroke-linecap="round" stroke-linejoin="round" />
        <path d="M36.7521 267.046L35.8817 270.048L37.4323 272.114V274.791" stroke="#171717" stroke-width="1.1875"
            stroke-linecap="round" stroke-linejoin="round" />
        <path
            d="M27.234 272.587C27.3911 272.225 27.5373 271.863 27.6802 271.5C30.4777 264.34 30.7008 256.73 30.024 249.013C26.3782 255.636 25.8735 263.477 25.4531 271.028C25.0811 265.338 23.9482 259.723 22.0847 254.334C21.101 260.12 21.6675 266.063 23.727 271.558C22.2568 269.394 20.7855 267.228 19.3127 265.06C18.6621 268.848 20.4939 272.868 24.9776 274.4C25.0106 274.411 25.047 274.426 25.0837 274.438"
            stroke="#171717" stroke-width="1.1875" stroke-linecap="round" stroke-linejoin="round" />
        <path d="M123.845 118.158C123.787 117.698 123.733 117.24 123.673 116.78" stroke="#171717"
            stroke-width="0.791667" stroke-linecap="round" stroke-linejoin="round" />
        <path
            d="M52.4786 197.085C52.4602 196.994 52.4455 196.906 52.4272 196.815C47.1685 168.44 36.7391 140.648 22.4072 115.362C18.3227 108.154 13.9308 101.163 9.23157 94.3894"
            stroke="#171717" stroke-width="1.1875" stroke-linecap="round" stroke-linejoin="round" />
        <path
            d="M8.93547 94.5334C0.542969 131.33 5.52297 171.457 24.7849 203.916C24.975 204.238 25.1689 204.56 25.3628 204.878C30.6251 213.581 36.8426 221.668 43.8998 228.99C46.3204 231.506 48.8378 233.926 51.4511 236.249"
            stroke="#171717" stroke-width="1.1875" stroke-linecap="round" stroke-linejoin="round" />
        <path
            d="M51.9468 227.273C49.3139 217.992 46.5554 208.747 43.6713 199.539C41.3635 192.164 38.9718 184.814 36.496 177.489C30.7439 160.425 24.5553 143.516 17.9298 126.762"
            stroke="#171717" stroke-width="1.1875" stroke-linecap="round" stroke-linejoin="round" />
        <path d="M52.8068 119.584C45.1557 98.5541 33.0661 79.4178 17.3605 63.4758" stroke="#171717"
            stroke-width="1.1875" stroke-linecap="round" stroke-linejoin="round" />
        <path
            d="M16.7773 62.884C16.792 63.0925 16.8066 63.301 16.8212 63.5129C17.9462 80.3092 19.8748 98.7183 22.5212 115.295"
            stroke="#171717" stroke-width="1.1875" stroke-linecap="round" stroke-linejoin="round" />
        <path d="M24.8904 205.163C16.3466 204.515 8.18744 201.346 1.4458 196.058" stroke="#171717" stroke-width="1.1875"
            stroke-linecap="round" stroke-linejoin="round" />
        <path
            d="M0.814697 196.101C1.30036 201.148 2.81322 206.044 5.26025 210.486C7.70727 214.927 11.0368 218.822 15.0442 221.93C19.0516 225.038 23.6521 227.293 28.5631 228.558C33.4745 229.822 38.5921 230.07 43.6021 229.284"
            stroke="#171717" stroke-width="1.1875" stroke-linecap="round" stroke-linejoin="round" />
        <path
            d="M51.5938 240.391C48.6118 237.275 45.1997 234.602 41.4605 232.452C41.324 232.346 41.1662 232.271 40.9978 232.232C40.8294 232.193 40.6547 232.192 40.4855 232.227C39.9774 232.424 39.9845 233.141 40.1105 233.671C40.6104 235.727 41.5209 237.66 42.7873 239.354C44.9634 242.326 48.0857 244.47 51.641 245.432"
            stroke="#171717" stroke-width="1.1875" stroke-linecap="round" stroke-linejoin="round" />
        <path
            d="M42.5623 239.525C40.0498 239.375 36.9159 239.393 34.4 239.243C35.8393 242.321 38.2959 244.807 41.3555 246.283C44.537 247.725 48.1089 248.061 51.5034 247.238"
            stroke="#171717" stroke-width="1.1875" stroke-linecap="round" stroke-linejoin="round" />
        <path
            d="M29.1249 89.9666C32.522 98.3444 35.729 106.873 38.7204 115.492C44.1159 131.041 48.797 146.898 52.5999 162.762"
            stroke="#171717" stroke-width="1.1875" stroke-linecap="round" stroke-linejoin="round" />
        <path
            d="M39.0595 101.614C38.95 106.241 38.8375 110.867 38.722 115.493C38.7186 115.568 38.7186 115.646 38.7148 115.723"
            stroke="#171717" stroke-width="1.1875" stroke-linecap="round" stroke-linejoin="round" />
        <path d="M33.6866 121.233C38.1323 127.058 42.282 133.103 46.1201 139.346" stroke="#171717" stroke-width="1.1875"
            stroke-linecap="round" stroke-linejoin="round" />
        <path d="M25.7842 132.603C26.3002 138.627 26.8143 144.651 27.3273 150.676" stroke="#171717"
            stroke-width="1.1875" stroke-linecap="round" stroke-linejoin="round" />
        <path d="M23.5823 163.079C28.0035 168.733 32.3948 173.048 36.8168 178.698" stroke="#171717"
            stroke-width="1.1875" stroke-linecap="round" stroke-linejoin="round" />
        <path
            d="M43.3041 184.996C43.4248 189.846 43.5456 194.694 43.6663 199.54C43.669 199.57 43.6701 199.601 43.6697 199.631"
            stroke="#171717" stroke-width="1.1875" stroke-linecap="round" stroke-linejoin="round" />
        <path
            d="M37.6283 168.233C36.6848 171.879 36.2828 173.74 36.491 177.488C36.491 177.507 36.4947 177.521 36.4947 177.54"
            stroke="#171717" stroke-width="1.1875" stroke-linecap="round" stroke-linejoin="round" />
        <path d="M14.2186 137.964C18.179 142.144 23.0428 146.51 27.0061 150.694" stroke="#171717" stroke-width="1.1875"
            stroke-linecap="round" stroke-linejoin="round" />
        <path
            d="M47.8757 127.427C47.4006 131.45 46.9239 135.475 46.4458 139.502C46.4968 139.177 46.5444 138.851 46.5958 138.527"
            stroke="#171717" stroke-width="1.1875" stroke-linecap="round" stroke-linejoin="round" />
        <path d="M27.705 107.356C31.0511 110.12 35.1652 112.702 38.5113 115.467" stroke="#171717" stroke-width="1.1875"
            stroke-linecap="round" stroke-linejoin="round" />
        <path
            d="M275.644 198.157C286.381 188.969 290.115 176.343 292.876 162.483C295.637 148.624 296.269 134.365 299.738 120.666C303.207 106.968 310.102 93.3378 322.122 85.9038C316.838 96.0809 314.574 107.567 313.441 118.979C312.307 130.39 312.245 141.893 311.049 153.299C309.641 166.728 306.613 180.112 300.671 192.235C294.728 204.358 287.213 214.319 275.555 221.128"
            stroke="#171717" stroke-width="1.1875" stroke-linecap="round" stroke-linejoin="round" />
        <path
            d="M275.39 241.092C290.497 231.884 297.44 216.364 303.669 199.809C309.898 183.254 314.45 165.77 324.265 151.051C317.065 169.076 320.25 190.107 312.289 207.814C305.82 222.2 292.402 233.358 289.217 248.808"
            stroke="#171717" stroke-width="1.1875" stroke-linecap="round" stroke-linejoin="round" />
        <path
            d="M289.151 249.365C289.235 249.215 289.319 249.065 289.407 248.915C292.135 244.244 296.012 240.348 300.671 237.597C301.871 236.891 303.355 236.255 304.602 236.873C306.207 237.666 306.295 239.919 305.922 241.673C305.403 244.305 304.291 246.783 302.671 248.921"
            stroke="#171717" stroke-width="1.1875" stroke-linecap="round" stroke-linejoin="round" />
        <path
            d="M271.432 249.8L271.695 249.811C277.513 250.052 283.336 250.069 289.164 249.862C293.676 249.708 298.179 249.419 302.672 248.995C303.532 248.911 304.387 248.827 305.243 248.736"
            stroke="#171717" stroke-width="1.1875" stroke-linecap="round" stroke-linejoin="round" />
        <path
            d="M275.822 209.172C287.258 204.63 292.897 194.65 296.927 183.025C300.957 171.399 301.662 158.933 302.599 146.664C303.535 134.394 304.8 121.891 309.817 110.654"
            stroke="#171717" stroke-width="1.1875" stroke-linecap="round" stroke-linejoin="round" />
        <path
            d="M275.822 189.983C285.347 177.747 286.46 165.58 287.729 150.126C288.998 134.672 288.172 119.076 290.004 103.676C290.882 96.3028 292.373 89.0162 294.462 81.8916C294.527 81.6609 294.593 81.4307 294.663 81.2042C294.827 80.6514 294.996 80.0994 295.168 79.5474C296.7 74.6316 298.509 69.8064 300.587 65.0953C300.649 64.9491 300.715 64.7991 300.781 64.6528C301.165 63.7903 301.559 62.9278 301.962 62.0709C302.042 61.9026 302.119 61.7335 302.2 61.5662C304.155 57.4513 306.315 53.4369 308.672 49.5384C308.72 49.4582 308.771 49.3742 308.819 49.2936C309.232 48.6133 309.652 47.9368 310.08 47.2641C310.098 47.2296 310.119 47.1966 310.142 47.1654C312.564 43.3307 315.183 39.6238 317.987 36.0591C318.104 35.9091 318.221 35.7628 318.338 35.6128C318.601 35.2802 318.863 34.9509 319.132 34.6221"
            stroke="#171717" stroke-width="1.1875" stroke-linecap="round" stroke-linejoin="round" />
        <path
            d="M268.717 55.1272C270.166 55.1088 271.654 55.083 273.003 54.5527C274.784 53.8545 276.309 52.0665 275.512 49.9638C275.286 49.4055 274.93 48.9093 274.474 48.5167C274.017 48.1241 273.473 47.8466 272.887 47.7071C270.59 47.1146 268.349 48.3213 266.725 49.9267C268.637 46.9976 267.116 42.4593 263.825 41.271C260.534 40.0826 256.467 42.6056 256.065 46.0796C256.215 43.0443 253.202 40.2615 250.188 40.6526C247.175 41.0437 244.97 44.5038 245.888 47.4003C245.006 46.4531 243.85 45.8051 242.582 45.5467C241.315 45.288 239.998 45.432 238.815 45.9585C237.633 46.485 236.645 47.3673 235.989 48.4826C235.333 49.5982 235.041 50.8905 235.155 52.1797C235.159 52.2345 235.15 52.29 235.129 52.3413C235.109 52.3923 235.077 52.4385 235.036 52.4756C234.995 52.5131 234.947 52.5405 234.894 52.5566C234.841 52.5723 234.785 52.5761 234.731 52.5671C232.957 52.3256 227.519 54.4942 230.441 56.9482C232.588 58.7482 237.283 56.0268 239.525 55.6211C248.721 53.9497 259.363 55.2408 268.717 55.1272Z"
            stroke="#171717" stroke-width="1.1875" stroke-linecap="round" stroke-linejoin="round" />
        <path
            d="M184.54 29.2107C187.978 29.09 191.414 28.9718 194.849 28.856C196.564 28.7937 198.337 28.7243 199.83 27.803C200.37 27.4737 200.826 27.023 201.161 26.4863C202.781 23.8422 200.251 21.4872 197.84 21.4726C195.976 21.4655 194.264 22.5114 192.871 23.7511C194.615 21.5094 194.114 17.867 191.828 16.181C191.116 15.6852 190.295 15.3672 189.434 15.2525C188.574 15.1381 187.698 15.2307 186.881 15.5229C185.838 15.8585 184.93 16.5181 184.288 17.4061C185.572 13.7199 182.503 9.4816 178.667 8.7436C174.831 8.0056 170.863 10.1514 168.53 13.2811C169.891 10.1619 168.227 6.1936 165.213 4.60698C162.2 3.02031 158.283 3.68523 155.658 5.85385C153.032 8.02248 151.653 11.471 151.573 14.8756C150.282 11.7125 148.31 8.1256 144.592 8.3131C143.745 8.37497 142.923 8.6281 142.188 9.05372C141.454 9.47935 140.825 10.0666 140.35 10.7705C138.13 13.9302 138.51 17.7005 138.909 21.2768C135.076 19.1851 129.679 22.3411 128.816 26.6232C128.959 25.9107 118.529 26.7357 122.647 30.8656C124.544 32.7706 133.679 30.9534 135.994 30.8727L173.419 29.5891C177.124 29.4627 180.831 29.3363 184.54 29.2107Z"
            stroke="#171717" stroke-width="1.1875" stroke-linecap="round" stroke-linejoin="round" />
        <path
            d="M186.826 15.7818C186.841 15.694 186.859 15.6063 186.877 15.5223C188.724 5.96316 197.263 1.62587 204.964 1.09187C212.732 0.554496 220.62 5.06691 224.089 12.0419C227.798 19.4984 226.377 28.7943 221.952 35.8488C218.394 41.5207 212.733 46.1392 206.121 47.2113C203.574 47.611 200.973 47.4888 198.475 46.8528C195.977 46.2164 193.634 45.0794 191.588 43.5104C187.609 40.4238 185.079 34.273 184.538 29.2117C184.527 29.1018 184.516 28.9923 184.505 28.8862"
            stroke="#171717" stroke-width="1.1875" stroke-linecap="round" stroke-linejoin="round" />
        <path
            d="M60.3025 22.0017C60.3392 22.1716 60.3869 22.3392 60.445 22.5027C60.4169 22.331 60.3689 22.163 60.3025 22.0017Z"
            stroke="#171717" stroke-width="1.1875" stroke-linecap="round" stroke-linejoin="round" />
        <path
            d="M60.3061 22.0028C59.6881 20.5621 57.512 20.0243 56.075 20.8362C54.4805 21.7362 53.7417 23.6596 53.5554 25.4843C53.6795 24.2738 50.3409 23.762 49.6239 23.8568C48.8739 23.9686 48.1677 24.2802 47.5797 24.7591C46.9914 25.2379 46.5432 25.8661 46.2815 26.5778C45.371 29.0153 46.4791 31.3647 48.9549 31.9426C51.8071 32.6116 55.4202 32.063 58.3021 31.9497C62.6739 31.775 67.0291 31.3096 71.339 30.5566C72.9845 30.2675 74.6922 29.9056 75.989 28.8522C77.2857 27.7988 78.0076 25.8462 77.1594 24.4092C76.8001 23.8658 76.2792 23.4492 75.6702 23.2175C75.0616 22.9861 74.3952 22.9512 73.7656 23.1181C73.1424 23.3052 72.5712 23.636 72.0987 24.0837C71.6262 24.5315 71.2655 25.0842 71.045 25.6966C71.93 23.3378 71.6885 20.5145 70.1709 18.5067C68.6532 16.499 65.8044 15.5007 63.4494 16.3894C61.2567 17.2122 59.8051 19.7465 60.3061 22.0028Z"
            stroke="#171717" stroke-width="1.1875" stroke-linecap="round" stroke-linejoin="round" />
        <path d="M138.332 282.76C139.786 281.616 141.442 280.755 143.214 280.222" stroke="#171717" stroke-width="1.1875"
            stroke-linecap="round" stroke-linejoin="round" />
        <path d="M134.717 280.426C136.229 279.272 137.948 278.418 139.782 277.91" stroke="#171717" stroke-width="1.1875"
            stroke-linecap="round" stroke-linejoin="round" />
        <path d="M131.973 278.807C133.465 277.672 135.143 276.806 136.932 276.247" stroke="#171717"
            stroke-width="1.1875" stroke-linecap="round" stroke-linejoin="round" />
        <path d="M80.9298 274.722C82.8753 275.147 84.8208 275.57 86.7663 275.991" stroke="#171717" stroke-width="1.1875"
            stroke-linecap="round" stroke-linejoin="round" />
        <path d="M81.0945 271.244C82.9042 271.594 84.7159 271.947 86.5286 272.301" stroke="#171717"
            stroke-width="1.1875" stroke-linecap="round" stroke-linejoin="round" />
        <path d="M80.3262 267.759C82.092 268.291 83.9086 268.636 85.7457 268.791" stroke="#171717" stroke-width="1.1875"
            stroke-linecap="round" stroke-linejoin="round" />
        <path
            d="M319.092 34.5816C319.095 34.5636 319.102 34.549 319.106 34.5306C319.642 32.5323 319.718 30.4379 319.327 28.4054C318.937 26.3733 318.089 24.4563 316.85 22.7991C316.508 22.3079 316.07 21.8913 315.562 21.574C315.308 21.4165 315.02 21.3213 314.722 21.2965C314.424 21.2718 314.124 21.3183 313.848 21.4315C313.552 21.5954 313.304 21.8331 313.128 22.1215C312.952 22.4103 312.855 22.7395 312.846 23.077C312.831 23.7539 312.953 24.4266 313.204 25.0555C314.447 28.771 316.4 32.2086 318.341 35.6129C318.345 35.6234 318.349 35.6335 318.356 35.6421"
            stroke="#171717" stroke-width="1.1875" stroke-linecap="round" stroke-linejoin="round" />
        <path
            d="M318.931 34.6727C318.986 34.6225 319.043 34.5749 319.103 34.5302C321.395 32.5817 324.169 31.2865 327.134 30.7802C327.86 30.6156 328.615 30.6231 329.339 30.8024C329.699 30.8961 330.026 31.0874 330.284 31.3551C330.542 31.6229 330.721 31.957 330.801 32.32C330.826 32.6571 330.772 32.9957 330.641 33.3077C330.511 33.6197 330.309 33.8965 330.051 34.1155C328.928 35.176 327.261 35.353 325.721 35.4685C323.146 35.6684 320.571 35.8671 317.996 36.0647"
            stroke="#171717" stroke-width="1.1875" stroke-linecap="round" stroke-linejoin="round" />
        <path
            d="M309.897 47.1483C310.285 42.3539 310.095 37.2344 307.524 33.1713C307.141 32.5015 306.612 31.9267 305.977 31.489C305.658 31.273 305.291 31.1362 304.908 31.0897C304.526 31.0432 304.137 31.0889 303.776 31.2224C303.389 31.4193 303.06 31.7125 302.821 32.074C302.581 32.4352 302.439 32.8525 302.408 33.2849C302.358 34.1504 302.478 35.0178 302.763 35.8372C304.105 40.4962 306.317 44.8552 308.575 49.1448"
            stroke="#171717" stroke-width="1.1875" stroke-linecap="round" stroke-linejoin="round" />
        <path
            d="M310.22 47.2125C314.109 45.0934 318.553 44.2107 322.957 44.682C323.682 44.7135 324.39 44.9112 325.027 45.2599C325.342 45.4395 325.596 45.7084 325.759 46.0324C325.921 46.3564 325.985 46.7209 325.941 47.0809C325.744 48.0559 324.629 48.5059 323.659 48.7377C318.814 49.8897 313.767 49.7502 308.79 49.608"
            stroke="#171717" stroke-width="1.1875" stroke-linecap="round" stroke-linejoin="round" />
        <path
            d="M301.698 61.9475C301.504 58.616 301.307 55.2702 300.63 52.0043C299.953 48.7385 298.776 45.5243 296.783 42.8476C296.353 42.1921 295.771 41.6498 295.086 41.2677C294.742 41.081 294.351 40.9962 293.96 41.0236C293.569 41.0506 293.193 41.1886 292.878 41.4211C292.194 42.0098 292.15 43.0448 292.208 43.9445C292.698 51.4996 296.531 58.3748 300.268 64.9535"
            stroke="#171717" stroke-width="1.1875" stroke-linecap="round" stroke-linejoin="round" />
        <path
            d="M302.41 61.6649C305.664 60.4581 308.096 59.6316 311.519 59.0504C314.941 58.4691 318.526 58.48 321.813 59.5877C322.698 59.884 323.674 60.4034 323.821 61.3251C323.938 62.071 323.44 62.7805 322.874 63.2852C320.555 65.344 317.114 65.3365 314.017 65.2161L300.888 64.6993"
            stroke="#171717" stroke-width="1.1875" stroke-linecap="round" stroke-linejoin="round" />
        <path
            d="M295.042 79.5764C293.055 72.3539 290.325 64.9814 284.828 59.8911C283.856 58.9911 282.459 58.132 281.292 58.7575C280.309 59.2877 280.082 60.6006 280.148 61.72C280.352 65.1062 282.173 68.1745 284.181 70.9097C287.071 74.8446 290.442 78.4019 294.216 81.499C294.318 81.3895 294.421 81.2762 294.523 81.1615"
            stroke="#171717" stroke-width="1.1875" stroke-linecap="round" stroke-linejoin="round" />
        <path
            d="M294.965 79.6575C294.997 79.6395 295.027 79.62 295.06 79.6065C295.097 79.5844 295.129 79.5664 295.166 79.548C298.976 77.46 302.812 75.3682 306.923 73.971C311.106 72.546 315.63 71.8575 319.967 72.7095C320.556 72.822 321.247 73.068 321.375 73.653C321.487 74.1577 321.112 74.6329 320.737 74.9914C317.38 78.2096 312.506 79.1895 307.891 79.7452C303.275 80.301 298.628 79.6102 294.598 81.9322"
            stroke="#171717" stroke-width="1.1875" stroke-linecap="round" stroke-linejoin="round" />
        <path
            d="M179.85 61.3101L183.088 62.9755C183.137 63.0002 183.177 63.0396 183.202 63.0876C183.228 63.1359 183.238 63.1907 183.231 63.2451C183.225 63.2991 183.202 63.3501 183.165 63.3906C183.129 63.4315 183.081 63.4599 183.028 63.4723L179.485 64.3127C179.433 64.3247 179.386 64.3517 179.35 64.3903C179.314 64.4289 179.291 64.4773 179.283 64.5294L178.7 68.1242C178.691 68.1782 178.666 68.2281 178.628 68.2675C178.59 68.3065 178.541 68.3331 178.487 68.3436C178.434 68.3541 178.378 68.3481 178.328 68.326C178.278 68.3042 178.236 68.2671 178.208 68.2206L176.314 65.1099C176.286 65.0649 176.246 65.0289 176.198 65.0064C176.15 64.9843 176.097 64.9768 176.045 64.9847L172.445 65.5408C172.391 65.5495 172.336 65.5408 172.287 65.5168C172.237 65.4932 172.197 65.4546 172.17 65.407C172.144 65.3593 172.133 65.3046 172.139 65.2502C172.144 65.1958 172.166 65.1444 172.202 65.1032L174.575 62.3406C174.609 62.3008 174.631 62.2517 174.638 62.1992C174.645 62.1471 174.636 62.0938 174.612 62.0466L172.971 58.7953C172.946 58.7466 172.937 58.6915 172.945 58.6378C172.953 58.5838 172.977 58.5332 173.014 58.4934C173.051 58.4537 173.1 58.4259 173.153 58.4143C173.206 58.4031 173.262 58.4079 173.312 58.4289L176.673 59.8322C176.721 59.8525 176.775 59.8581 176.827 59.8479C176.878 59.8378 176.926 59.8127 176.964 59.7756L179.548 57.2098C179.587 57.1716 179.637 57.1457 179.69 57.1363C179.744 57.127 179.799 57.1341 179.849 57.1573C179.898 57.1802 179.94 57.2177 179.967 57.2649C179.994 57.3122 180.007 57.3666 180.002 57.4209L179.706 61.0506C179.702 61.1031 179.713 61.156 179.739 61.2021C179.764 61.2482 179.803 61.2857 179.85 61.3101Z"
            stroke="#171717" stroke-width="1.1875" stroke-linecap="round" stroke-linejoin="round" />
        <path
            d="M94.0527 42.0127L99.4321 42.6225C99.4771 42.6285 99.5195 42.6476 99.5532 42.678C99.587 42.7084 99.611 42.7481 99.6219 42.792C99.6327 42.8362 99.6301 42.8827 99.614 42.9251C99.5979 42.9675 99.5694 43.0042 99.5322 43.0301L95.0484 46.0627C95.0116 46.0879 94.9835 46.1227 94.9666 46.164C94.9497 46.2049 94.9456 46.2499 94.9542 46.293L96.0372 51.5974C96.0455 51.642 96.0402 51.6881 96.0219 51.7297C96.0039 51.7714 95.9731 51.8066 95.9349 51.8302C95.8962 51.8542 95.8512 51.8659 95.8059 51.864C95.7605 51.8617 95.717 51.846 95.6806 51.8186L91.4109 48.4927C91.376 48.4657 91.3336 48.4496 91.2897 48.4466C91.2455 48.4432 91.2016 48.4534 91.163 48.4747L86.4526 51.1436C86.4129 51.1657 86.3671 51.1747 86.3221 51.1702C86.2767 51.1657 86.234 51.1477 86.1991 51.1181C86.1646 51.0889 86.1395 51.0499 86.1275 51.006C86.1155 50.9621 86.117 50.9156 86.132 50.8725L87.9759 45.7819C87.9909 45.7406 87.9931 45.6956 87.9826 45.6525C87.9721 45.6097 87.9489 45.5707 87.9166 45.5407L83.9229 41.8856C83.8899 41.8545 83.867 41.8144 83.8572 41.7697C83.8475 41.7255 83.8516 41.679 83.8685 41.637C83.8857 41.595 83.915 41.559 83.9532 41.5342C83.9911 41.5091 84.0357 41.496 84.0811 41.4967L89.492 41.6771C89.5362 41.6786 89.5794 41.6666 89.6169 41.6434C89.6544 41.6201 89.6844 41.5864 89.7027 41.5462L91.9449 36.6184C91.9644 36.5775 91.9955 36.543 92.0349 36.5201C92.0742 36.4972 92.1196 36.4867 92.165 36.4901C92.2104 36.4935 92.2535 36.5104 92.2891 36.5389C92.3244 36.5674 92.3506 36.6056 92.3637 36.6491L93.8637 41.8511C93.8757 41.8939 93.9001 41.9317 93.9339 41.9606C93.9676 41.9895 94.0089 42.0075 94.0527 42.0127Z"
            fill="#171717" />
        <path
            d="M263.736 6.60566L267.136 6.18642C267.164 6.18304 267.193 6.18829 267.219 6.20179C267.245 6.21529 267.265 6.23629 267.279 6.26179C267.292 6.28766 267.297 6.31691 267.293 6.34541C267.289 6.37429 267.277 6.40091 267.258 6.42229L264.948 8.95092C264.928 8.97154 264.916 8.99742 264.912 9.02517C264.907 9.05254 264.912 9.08104 264.924 9.10617L266.373 12.2097C266.385 12.2359 266.389 12.2652 266.384 12.2937C266.379 12.3222 266.365 12.3484 266.345 12.3687C266.324 12.3893 266.298 12.4028 266.27 12.408C266.241 12.4129 266.212 12.4092 266.186 12.3972L263.067 10.9815C263.041 10.9703 263.013 10.9665 262.985 10.971C262.957 10.9755 262.932 10.9879 262.912 11.007L260.408 13.3448C260.387 13.3647 260.36 13.3774 260.332 13.3815C260.303 13.3853 260.274 13.3808 260.248 13.3677C260.222 13.3549 260.201 13.3343 260.187 13.3088C260.173 13.2833 260.167 13.2544 260.171 13.2255L260.553 9.82167C260.556 9.79392 260.551 9.76579 260.538 9.74104C260.525 9.71629 260.506 9.69567 260.481 9.68179L257.484 8.02317C257.459 8.00929 257.438 7.98792 257.425 7.96204C257.413 7.93579 257.408 7.90654 257.412 7.87804C257.417 7.84954 257.43 7.82292 257.45 7.80192C257.47 7.78092 257.496 7.76666 257.524 7.76066L260.88 7.07217C260.907 7.06654 260.932 7.05304 260.952 7.03279C260.972 7.01291 260.985 6.98741 260.99 6.95966L261.642 3.59704C261.647 3.56854 261.661 3.54266 261.682 3.52241C261.703 3.50216 261.729 3.48867 261.757 3.48417C261.786 3.47929 261.816 3.48342 261.842 3.49617C261.868 3.50854 261.889 3.52879 261.904 3.55391L263.595 6.53254C263.608 6.55766 263.629 6.57792 263.655 6.59104C263.68 6.60417 263.708 6.60904 263.736 6.60566Z"
            fill="#171717" />
        <path
            d="M93.5778 130.814L96.4495 133.054C96.4923 133.087 96.5241 133.134 96.5403 133.186C96.5564 133.238 96.556 133.293 96.5395 133.345C96.5226 133.398 96.4907 133.443 96.4472 133.476C96.4041 133.509 96.3516 133.528 96.2973 133.531L92.6598 133.696C92.6069 133.698 92.5563 133.716 92.5135 133.748C92.4711 133.779 92.4389 133.822 92.4209 133.872L91.1781 137.295C91.1594 137.346 91.1253 137.391 91.081 137.422C91.0364 137.453 90.9831 137.47 90.9287 137.47C90.8744 137.471 90.8208 137.455 90.7761 137.424C90.7311 137.393 90.6966 137.349 90.6775 137.298L89.3961 133.889C89.3774 133.84 89.3448 133.797 89.302 133.766C89.2593 133.735 89.2083 133.718 89.1558 133.716L85.516 133.592C85.4613 133.59 85.4088 133.571 85.3653 133.539C85.3218 133.506 85.2891 133.461 85.2719 133.409C85.2546 133.357 85.2539 133.302 85.2693 133.249C85.2846 133.197 85.3158 133.151 85.3585 133.117L88.2048 130.845C88.246 130.812 88.2764 130.767 88.2925 130.717C88.3086 130.667 88.3094 130.613 88.2948 130.562L87.2868 127.062C87.2718 127.009 87.2733 126.954 87.2909 126.902C87.3085 126.851 87.3415 126.806 87.3854 126.774C87.4293 126.741 87.4821 126.723 87.5365 126.722C87.5909 126.72 87.6445 126.736 87.6903 126.766L90.7308 128.77C90.7746 128.799 90.826 128.815 90.8789 128.815C90.9314 128.815 90.9831 128.799 91.027 128.77L94.0446 126.731C94.0896 126.7 94.1433 126.684 94.1976 126.685C94.252 126.686 94.3053 126.703 94.3495 126.735C94.3938 126.767 94.4271 126.811 94.4455 126.863C94.4635 126.914 94.4654 126.97 94.4511 127.023L93.484 130.534C93.4701 130.584 93.472 130.638 93.4885 130.688C93.5054 130.738 93.5361 130.782 93.5778 130.814Z"
            stroke="#171717" stroke-width="1.1875" stroke-miterlimit="10" />
        <path d="M50.6821 60.8798L44.9641 55.7603" stroke="#171717" stroke-width="1.1875" stroke-linecap="round"
            stroke-linejoin="round" />
        <path d="M45.3962 61.9179C46.8377 59.6679 48.2792 57.4172 49.72 55.1653" stroke="#171717" stroke-width="1.1875"
            stroke-linecap="round" stroke-linejoin="round" />
        <path d="M116.566 8.1804C117.6 6.71865 118.635 5.2569 119.669 3.7959" stroke="#171717" stroke-width="1.1875"
            stroke-linecap="round" stroke-linejoin="round" />
        <path d="M119.922 8.15414C118.63 6.34889 117.337 4.54327 116.045 2.73779" stroke="#171717" stroke-width="1.1875"
            stroke-linecap="round" stroke-linejoin="round" />
        <path d="M280.017 28.9871C277.525 26.1749 275.514 22.9706 274.066 19.5029" stroke="#171717"
            stroke-width="1.1875" stroke-linecap="round" stroke-linejoin="round" />
        <path d="M273.25 27.2769L279.197 21.0894" stroke="#171717" stroke-width="1.1875" stroke-linecap="round"
            stroke-linejoin="round" />
        <path d="M104.403 108.08L99.7529 101.63" stroke="#171717" stroke-width="1.1875" stroke-linecap="round"
            stroke-linejoin="round" />
        <path d="M98.9984 107.809C101.565 106.029 103.831 103.85 105.711 101.355" stroke="#171717" stroke-width="1.1875"
            stroke-linecap="round" stroke-linejoin="round" />
        <path d="M151.057 106.178L153.945 103.125" stroke="#171717" stroke-width="1.1875" stroke-linecap="round"
            stroke-linejoin="round" />
        <path d="M153.976 106.775C152.943 105.399 151.911 104.022 150.879 102.645" stroke="#171717"
            stroke-width="1.1875" stroke-linecap="round" stroke-linejoin="round" />
        <path
            d="M89.1538 183.511C87.1933 182.482 85.5767 180.902 84.5038 178.966C83.4309 177.029 82.9487 174.82 83.1163 172.613"
            stroke="#171717" stroke-width="1.1875" stroke-linecap="round" stroke-linejoin="round" />
        <path
            d="M68.0322 274.559C67.3149 273.513 66.8671 272.306 66.7284 271.045C66.5896 269.785 66.7644 268.509 67.2369 267.332"
            stroke="#171717" stroke-width="1.1875" stroke-linecap="round" stroke-linejoin="round" />
        <path d="M202.512 122.007L216.71 106.776" stroke="#171717" stroke-width="1.1875" stroke-linecap="round"
            stroke-linejoin="round" />
        <path d="M197.607 119.424L198.123 112.454" stroke="#171717" stroke-width="1.1875" stroke-linecap="round"
            stroke-linejoin="round" />
        <path d="M205.091 126.136L213.61 127.685" stroke="#171717" stroke-width="1.1875" stroke-linecap="round"
            stroke-linejoin="round" />
        <path fill-rule="evenodd" clip-rule="evenodd"
            d="M189.434 15.2524C188.574 15.1381 187.698 15.2307 186.881 15.5228C185.838 15.8588 184.929 16.5192 184.288 17.4079C185.572 13.7224 182.5 9.48119 178.667 8.74545C174.835 8.0097 170.863 10.1528 168.53 13.2829C169.891 10.1637 168.223 6.19957 165.213 4.60882C162.204 3.01796 158.28 3.68707 155.658 5.85569C153.035 8.02432 151.653 11.4728 151.573 14.8774C150.282 11.7124 148.311 8.12482 144.592 8.31495C143.745 8.37645 142.923 8.62995 142.188 9.05557C141.454 9.4812 140.825 10.0681 140.35 10.7723C138.13 13.9321 138.51 17.7023 138.909 21.2787C135.076 19.1869 129.678 22.3429 128.816 26.6251C128.959 25.9122 118.529 26.7387 122.647 30.8674C124.092 32.3183 129.736 31.6099 133.367 31.1543C134.503 31.0114 135.443 30.8937 135.994 30.8746L173.419 29.5909C177.125 29.4623 180.832 29.3356 184.54 29.2107C187.975 29.0911 191.411 28.9729 194.849 28.8559C196.564 28.7937 198.338 28.7243 199.83 27.8029C200.37 27.4737 200.826 27.0229 201.161 26.4863C202.781 23.8422 200.251 21.4872 197.84 21.4726C195.976 21.4654 194.264 22.5113 192.871 23.7511C194.615 21.5093 194.116 17.8684 191.828 16.1809C191.116 15.6852 190.295 15.3668 189.434 15.2524ZM188.324 17.5767C188.013 17.5726 187.758 17.8212 187.754 18.1317C187.75 18.4426 187.999 18.6976 188.309 18.7017C188.818 18.7081 189.317 18.8506 189.752 19.1146C190.188 19.3782 190.546 19.7536 190.787 20.2017C191.03 20.6502 191.147 21.1549 191.129 21.6638C191.11 22.1727 190.956 22.6677 190.682 23.0971C190.515 23.3592 190.592 23.7068 190.854 23.8737C191.116 24.0409 191.464 23.9641 191.631 23.7019C192.013 23.1034 192.227 22.4142 192.253 21.7047C192.279 20.9952 192.115 20.2921 191.777 19.6673C191.44 19.0426 190.942 18.5194 190.335 18.1519C189.728 17.7844 189.034 17.5857 188.324 17.5767ZM176.916 11.1934C176.94 10.8837 177.211 10.6523 177.52 10.6767C178.924 10.7866 180.24 11.3993 181.228 12.4028C182.215 13.4059 182.807 14.7319 182.895 16.1371C182.914 16.4472 182.678 16.7142 182.368 16.7337C182.059 16.7528 181.792 16.5173 181.772 16.2072C181.701 15.0728 181.223 14.0018 180.426 13.1918C179.629 12.3818 178.566 11.8868 177.433 11.7983C177.123 11.7739 176.891 11.5032 176.916 11.1934ZM162.134 4.48432C161.833 4.40745 161.527 4.58932 161.45 4.89007C161.373 5.1912 161.554 5.49757 161.855 5.57444C163.037 5.87632 164.077 6.5802 164.796 7.5657C165.515 8.55082 165.869 9.7557 165.797 10.9733C165.778 11.2834 166.015 11.5497 166.325 11.5681C166.635 11.5864 166.901 11.3502 166.919 11.0401C167.008 9.56145 166.578 8.09857 165.705 6.90232C164.831 5.70607 163.569 4.85107 162.134 4.48432Z"
            fill="#171717" />
        <path
            d="M209.254 10.3103C206.638 9.89109 203.989 12.4265 204.292 15.0575C204.595 17.6885 207.753 19.5541 210.204 18.5502C212.656 17.5463 213.597 14.0022 211.967 11.9127"
            stroke="#171717" stroke-width="1.1875" stroke-linecap="round" stroke-linejoin="round" />
        <path
            d="M194.281 34.7642C194.136 35.3488 194.154 35.9619 194.333 36.5375C194.511 37.1128 194.842 37.6288 195.291 38.03C195.741 38.4309 196.291 38.702 196.883 38.8138C197.475 38.9255 198.086 38.8738 198.651 38.6642"
            stroke="#171717" stroke-width="1.1875" stroke-linecap="round" stroke-linejoin="round" />
        <path
            d="M208.806 26.8875C207.634 27.2718 206.617 28.0222 205.904 29.0283C205.191 30.0341 204.82 31.2423 204.846 32.4749C204.921 33.7057 205.364 34.8858 206.117 35.8623C206.87 36.8388 207.898 37.5667 209.07 37.9526C210.253 38.2995 211.51 38.3096 212.699 37.9818C213.887 37.6541 214.961 37.0016 215.799 36.0975C216.614 35.172 217.176 34.0522 217.433 32.8462C217.69 31.6402 217.632 30.3885 217.264 29.2117"
            stroke="#171717" stroke-width="1.1875" stroke-linecap="round" stroke-linejoin="round" />
        <path d="M127.163 139.364C127.1 137.686 127.036 136.008 126.972 134.33" stroke="#171717" stroke-width="1.1875"
            stroke-linecap="round" stroke-linejoin="round" />
        <path d="M122.577 139.625L122.493 134.719" stroke="#171717" stroke-width="1.1875" stroke-linecap="round"
            stroke-linejoin="round" />
        <path d="M118.046 139.689C118.029 138.161 118.011 136.634 117.993 135.107" stroke="#171717"
            stroke-width="1.1875" stroke-linecap="round" stroke-linejoin="round" />
        <path
            d="M109.782 165.092C110.372 166.037 111.248 166.77 112.283 167.184C113.317 167.597 114.457 167.67 115.536 167.392C118.201 166.642 119.793 163.931 122.166 162.505C123.188 161.903 124.336 161.544 125.519 161.458C126.703 161.373 127.89 161.562 128.989 162.01C130.663 162.711 132.022 163.98 133.39 165.172C134.759 166.365 136.24 167.535 138.003 167.965C139.765 168.394 141.886 167.878 142.809 166.315"
            stroke="#171717" stroke-width="1.1875" stroke-linecap="round" stroke-linejoin="round" />
        <path
            d="M110.584 161.695C111.522 163.031 113.483 163.305 115.008 162.727C116.532 162.149 117.704 160.914 118.75 159.663C119.796 158.413 120.802 157.081 122.169 156.193C123.102 155.598 124.161 155.23 125.261 155.119C126.361 155.007 127.472 155.155 128.505 155.55C131.45 156.706 133.392 159.761 136.417 160.69C137.552 161.021 138.756 161.032 139.897 160.72C141.037 160.409 142.069 159.789 142.879 158.928"
            stroke="#171717" stroke-width="1.1875" stroke-linecap="round" stroke-linejoin="round" />
        <path d="M103.251 188.734L142.683 188.169" stroke="#171717" stroke-width="1.1875" stroke-linecap="round"
            stroke-linejoin="round" />
        <path d="M118.576 185.319C119.192 181.341 119.587 177.332 119.758 173.311" stroke="#171717"
            stroke-width="1.1875" stroke-linecap="round" stroke-linejoin="round" />
        <path
            d="M183.584 144.221C183.759 141.725 183.329 139.225 182.331 136.931C181.333 134.638 179.796 132.619 177.851 131.046"
            stroke="#171717" stroke-width="1.1875" stroke-linecap="round" stroke-linejoin="round" />
        <g opacity="0.1">
            <path
                d="M17.0011 64.8452C16.2927 66.6662 16.5421 68.6552 16.6868 70.5572C16.8537 72.7547 17.0401 74.9537 17.195 77.1516C17.4991 81.4577 17.9562 85.7068 18.47 90.0021C18.9691 94.1679 19.3265 98.3556 19.8676 102.515C20.153 104.711 20.5051 106.896 20.8426 109.084C21.1625 111.162 21.1925 113.359 22.256 115.212C23.0678 116.626 24.9935 116.162 25.5009 114.788C26.24 112.793 25.8635 110.504 25.8009 108.413C25.7382 106.322 25.6884 104.231 25.526 102.147C25.1836 97.7218 24.5885 93.3021 24.044 88.8988C23.5111 84.5811 22.8004 80.3885 21.9304 76.139C21.512 74.0942 21.0567 72.0624 20.5887 70.0284C20.1357 68.0608 19.7221 66.0647 18.4103 64.4724C17.9652 63.9324 17.2055 64.3164 17 64.8448L17.0011 64.8452Z"
                fill="#171717" />
        </g>
        <g opacity="0.1">
            <path
                d="M9.7606 95.6714C9.27685 97.0477 8.60973 98.1839 8.27373 99.6089C8.00748 100.739 7.6891 101.859 7.45473 102.995C6.93573 105.515 6.09798 107.85 5.69223 110.415C4.91189 115.559 4.51458 120.754 4.50348 125.957C4.43684 136.129 5.39977 146.283 7.37748 156.261C11.0576 174.903 18.049 192.734 28.0201 208.909C30.686 213.231 33.5465 217.425 36.6024 221.49C39.8079 225.744 43.106 230.218 47.0255 233.846C47.6427 234.448 48.4557 234.807 49.316 234.858C50.1766 234.909 51.0267 234.649 51.7107 234.125C52.9576 233.132 53.7286 230.949 52.6299 229.522C49.8609 225.925 46.7652 222.595 43.9974 218.992C41.2921 215.471 38.7451 211.833 36.3567 208.079C31.5905 200.589 27.4554 192.715 23.9945 184.539C16.6227 167.101 12.7119 148.351 11.831 129.467C11.5685 123.855 11.681 118.249 11.7395 112.635C11.7541 111.238 11.8145 109.837 11.81 108.441C11.8036 107.012 11.4725 105.694 11.5786 104.259C11.6817 102.871 11.7072 101.479 11.8205 100.091C11.936 98.6733 11.6937 97.3578 11.7275 95.9403C11.7556 94.762 10.121 94.645 9.75948 95.6737L9.7606 95.6714Z"
                fill="#171717" />
        </g>
        <g opacity="0.1">
            <path
                d="M121.32 112.063C120.06 115.475 119.273 119.044 118.981 122.669C118.811 124.539 118.78 126.402 118.724 128.276C118.671 130.076 118.274 131.917 118.843 133.667C119.525 135.767 122.207 135.175 122.468 133.177C122.709 131.339 122 129.427 121.941 127.575C121.889 125.941 121.928 124.301 122.018 122.669C122.21 119.208 122.615 115.732 123.012 112.292C123.131 111.261 121.637 111.224 121.32 112.063Z"
                fill="#171717" />
        </g>
        <g opacity="0.1">
            <path
                d="M116.45 135.353C115.832 136.45 115.675 137.469 115.389 138.677C115.239 139.308 115.187 139.563 114.789 139.813C114.239 140.102 113.647 140.301 113.035 140.402C110.152 141.013 107.34 141.914 104.639 143.091C99.2763 145.475 94.4471 148.963 91.1677 153.897C87.8823 158.817 86.6411 164.823 87.7065 170.643C88.8003 176.238 92.8496 180.894 97.899 183.379C104.649 186.7 112.156 186.567 119.473 185.947C123.704 185.589 123.799 179.01 119.473 179.268C110.681 179.793 96.1477 180.057 94.2483 168.552C92.5556 158.29 101.999 151.004 110.094 147.047C112.294 145.972 115.405 145.138 117.012 143.182C117.699 142.26 118.157 141.187 118.348 140.052C118.589 138.601 118.004 137.227 118.055 135.788C118.05 135.601 117.985 135.421 117.87 135.274C117.755 135.128 117.595 135.022 117.415 134.973C117.234 134.924 117.043 134.935 116.869 135.003C116.696 135.072 116.549 135.195 116.45 135.353Z"
                fill="#171717" />
        </g>
        <g opacity="0.1">
            <path
                d="M110.618 161.205C108.866 163.473 106.68 168.314 107.839 171.15C108.739 173.358 111.401 173.834 112.818 171.801C113.79 170.407 113.697 168.538 113.886 166.893C114.105 165.338 114.244 163.772 114.302 162.202C114.322 160.053 111.729 159.765 110.618 161.205Z"
                fill="#171717" />
        </g>
        <g opacity="0.1">
            <path
                d="M105.575 191.511C105.253 191.674 106.072 191.273 106.145 191.215C106.39 191.004 106.599 190.756 106.764 190.479C106.993 190.136 107.195 189.779 107.398 189.42L105.61 190.446L106.013 190.392C106.785 190.29 107.522 190.144 108.081 189.536C108.609 188.974 108.914 188.238 108.938 187.468L108.949 187.241C109.072 184.738 105.789 183.564 104.109 185.236L103.945 185.4C103.089 186.251 102.754 187.896 103.488 188.944L103.822 189.42L103.613 187.825C103.483 188.213 103.35 188.6 103.254 188.999C103.181 189.239 103.137 189.486 103.122 189.736C103.111 189.988 103.167 190.239 103.284 190.462C103.401 190.714 103.416 190.759 103.328 190.597C103.394 190.82 103.509 191.026 103.666 191.199C103.822 191.372 104.016 191.507 104.231 191.595C104.447 191.683 104.68 191.721 104.913 191.706C105.146 191.692 105.372 191.625 105.575 191.511Z"
                fill="#171717" />
        </g>
        <g opacity="0.1">
            <path
                d="M138.056 156.416C142.713 157.288 147.462 156.303 152.071 155.445C156.791 154.565 161.46 153.43 166.058 152.046C170.388 150.78 174.635 149.246 178.774 147.452C182.119 145.969 187.102 143.523 187.999 139.632C188.586 137.084 186.083 135.476 183.876 136.462C182.307 137.163 181.263 138.565 179.845 139.51C178.338 140.495 176.744 141.34 175.083 142.035C171.25 143.628 167.327 144.994 163.334 146.127C159.292 147.321 155.199 148.321 151.055 149.127C146.743 149.966 142.159 150.169 138.056 151.762C136.077 152.53 135.469 155.93 138.056 156.415L138.056 156.416Z"
                fill="#171717" />
        </g>
        <g opacity="0.1">
            <path
                d="M277.595 244.407C280.367 244.032 283.199 241.345 285.183 239.5C287.379 237.439 289.439 235.237 291.35 232.909C295.356 228.11 298.871 222.919 301.839 217.416C308.199 205.5 312.878 192.526 316.528 179.544C317.58 175.799 318.922 172.095 319.737 168.29C320.13 166.456 319.892 164.514 320.167 162.669C320.523 160.284 321.648 157.831 322.628 155.645C322.654 155.595 322.67 155.541 322.674 155.485C322.678 155.43 322.671 155.373 322.652 155.32C322.633 155.268 322.604 155.22 322.565 155.179C322.527 155.138 322.48 155.106 322.429 155.084C322.377 155.062 322.322 155.052 322.266 155.052C322.209 155.053 322.154 155.066 322.104 155.089C322.053 155.113 322.007 155.147 321.97 155.189C321.933 155.231 321.905 155.28 321.888 155.333C321.169 157.046 320.361 158.706 319.599 160.398C318.881 161.994 317.813 163.078 316.836 164.468C315.894 165.804 315.073 167.22 314.384 168.702C313.616 170.315 312.964 171.927 312.345 173.606C309.927 180.178 307.342 186.693 304.943 193.278C300.725 204.852 295.633 216.4 288.385 226.432C286.48 229.065 284.392 231.561 282.136 233.9C281.024 235.056 279.89 236.196 278.761 237.336C277.501 238.609 276.002 239.71 275.271 241.386C274.51 243.134 275.752 244.656 277.594 244.407H277.595Z"
                fill="#171717" />
        </g>
        <g opacity="0.1">
            <path
                d="M209.775 1.14382C204.921 1.63844 200.402 1.67107 195.896 3.84794C192.075 5.69332 188.953 8.8197 187.455 12.7819C186.166 16.1888 191.91 17.8756 192.976 14.3041C193.923 11.1316 196.02 8.8542 198.793 7.14157C202.101 5.09557 206.234 3.67132 209.99 2.73419C210.852 2.51894 210.699 1.05157 209.775 1.14569V1.14382Z"
                fill="#171717" />
        </g>
        <g opacity="0.1">
            <path
                d="M211.219 43.4909C208.857 43.6686 206.568 43.9784 204.227 43.5194C201.927 43.066 199.738 42.1652 197.785 40.8685C194.726 38.821 191.242 34.621 191.687 30.6625C191.902 28.744 189.787 27.3269 188.102 27.5549C186.385 27.787 184.774 29.6924 185.471 31.5036C186.528 34.2509 187.147 36.922 188.887 39.385C190.54 41.7227 192.697 43.8617 195.271 45.1682C200.095 47.6166 207.19 47.8851 211.555 44.3012C211.62 44.2341 211.663 44.1497 211.68 44.0582C211.698 43.9667 211.688 43.8722 211.652 43.7864C211.617 43.7005 211.557 43.6266 211.48 43.5741C211.403 43.5216 211.313 43.4927 211.219 43.4909Z"
                fill="#171717" />
        </g>
        <g opacity="0.1">
            <path
                d="M48.6456 24.4441C45.9118 24.383 45.2815 27.9643 46.462 29.8723C47.1437 31.0794 48.1596 32.0638 49.387 32.7073C51.1697 33.5994 53.0511 33.3995 54.9745 33.1876C58.8081 32.7654 62.662 32.5978 66.4825 32.0311C70.1372 31.4889 74.6042 30.821 77.3518 28.1653C78.1105 27.4318 77.5817 25.8346 76.432 25.9445C73.888 26.1883 71.557 27.2135 69.0643 27.7483C66.4048 28.2886 63.7063 28.6149 60.9947 28.7233C58.3165 28.8601 55.687 28.6839 53.0132 28.5579C51.9002 28.5058 50.7632 28.607 49.6626 28.4803C48.004 28.2886 48.1896 26.702 49.156 25.6738C49.2527 25.5714 49.318 25.4435 49.3435 25.3051C49.369 25.1664 49.354 25.0235 49.3 24.8934C49.246 24.7633 49.1556 24.6515 49.0397 24.5716C48.9238 24.4918 48.787 24.4475 48.6463 24.4434L48.6456 24.4441Z"
                fill="#171717" />
        </g>
    </g>
    <defs>
        <linearGradient id="paint0_linear_10563_12232" x1="137.048" y1="130.418" x2="137.048" y2="191.661"
            gradientUnits="userSpaceOnUse">
            <stop stop-color="#4A9FFF" />
            <stop offset="1" stop-color="#2A67F7" />
        </linearGradient>
        <linearGradient id="paint1_linear_10563_12232" x1="28.7183" y1="94.3875" x2="28.7183" y2="236.254"
            gradientUnits="userSpaceOnUse">
            <stop stop-color="#4A9FFF" />
            <stop offset="1" stop-color="#2A67F7" />
        </linearGradient>
        <linearGradient id="paint2_linear_10563_12232" x1="252.662" y1="40.6138" x2="252.662" y2="57.5551"
            gradientUnits="userSpaceOnUse">
            <stop stop-color="#4A9FFF" />
            <stop offset="1" stop-color="#2A67F7" />
        </linearGradient>
        <linearGradient id="paint3_linear_10563_12232" x1="298.729" y1="85.9038" x2="298.729" y2="221.13"
            gradientUnits="userSpaceOnUse">
            <stop stop-color="#4A9FFF" />
            <stop offset="1" stop-color="#2A67F7" />
        </linearGradient>
        <linearGradient id="paint4_linear_10563_12232" x1="228.298" y1="248.012" x2="228.298" y2="270.712"
            gradientUnits="userSpaceOnUse">
            <stop stop-color="#4A9FFF" />
            <stop offset="1" stop-color="#2A67F7" />
        </linearGradient>
        <linearGradient id="paint5_linear_10563_12232" x1="209.138" y1="221.765" x2="209.138" y2="256.289"
            gradientUnits="userSpaceOnUse">
            <stop stop-color="#4A9FFF" />
            <stop offset="1" stop-color="#2A67F7" />
        </linearGradient>
        <linearGradient id="paint6_linear_10563_12232" x1="124.17" y1="134.001" x2="124.17" y2="140.487"
            gradientUnits="userSpaceOnUse">
            <stop stop-color="#4A9FFF" />
            <stop offset="1" stop-color="#2A67F7" />
        </linearGradient>
    </defs>
</svg>