<svg width="22" height="22" viewBox="0 0 22 22" fill="none" xmlns="http://www.w3.org/2000/svg">
    <path
        d="M7.927 9.46233C9.02172 11.3856 10.6144 12.9783 12.5377 14.073L13.569 12.6287C13.7349 12.3964 13.9801 12.233 14.2583 12.1694C14.5365 12.1058 14.8283 12.1463 15.0787 12.2833C16.7287 13.1851 18.5509 13.7274 20.4255 13.8747C20.7181 13.8979 20.9912 14.0305 21.1903 14.246C21.3895 14.4616 21.5 14.7443 21.5 15.0378V20.2435C21.5001 20.5324 21.393 20.811 21.1994 21.0254C21.0059 21.2399 20.7397 21.3749 20.4523 21.4043C19.834 21.4685 19.211 21.5 18.5833 21.5C8.59667 21.5 0.5 13.4033 0.5 3.41667C0.5 2.789 0.5315 2.166 0.595667 1.54767C0.62513 1.26031 0.760148 0.994107 0.974588 0.800573C1.18903 0.607038 1.46764 0.499938 1.7565 0.5H6.96217C7.25566 0.499963 7.53838 0.610543 7.75396 0.809693C7.96954 1.00884 8.10215 1.28193 8.12533 1.5745C8.27259 3.44909 8.81492 5.27129 9.71667 6.92133C9.85371 7.17166 9.89425 7.46353 9.83061 7.74173C9.76697 8.01992 9.60358 8.26515 9.37133 8.431L7.927 9.46233ZM4.98467 8.69583L7.20133 7.11267C6.57225 5.75478 6.14124 4.31365 5.9215 2.83333H2.845C2.838 3.027 2.8345 3.22183 2.8345 3.41667C2.83333 12.1153 9.88467 19.1667 18.5833 19.1667C18.7782 19.1667 18.973 19.1632 19.1667 19.155V16.0785C17.6864 15.8588 16.2452 15.4278 14.8873 14.7987L13.3042 17.0153C12.6668 16.7677 12.0477 16.4753 11.4515 16.1403L11.3838 16.1018C9.09551 14.7995 7.20049 12.9045 5.89817 10.6162L5.85967 10.5485C5.52472 9.95232 5.23233 9.33323 4.98467 8.69583Z"
        fill="#0F172A" />
</svg>